<svg xmlns="http://www.w3.org/2000/svg" viewBox="0 0 512 512"><path d="M467 161c-13-34-68-38-82-38-27-27-52-37-62-40l-6-23c-1-4-4-6-8-5s-6 4-5 8l7 27c0 3 2 5 5 5 0 0 29 7 61 39 2 2 3 2 5 2 17 0 63 6 72 30a7 7 0 009 4c4-1 6-5 4-9zM138 135c32-33 58-40 58-40 3 0 5-2 5-5l7-27c1-4-1-7-5-8s-7 1-8 5l-6 23c-9 4-32 14-59 40-14 0-72 4-85 38a7 7 0 006 10c3 0 5-2 6-5 10-24 58-29 76-29l5-2zM153 316a7 7 0 00-4-8c-7-2-26-9-30-17a7 7 0 00-13 3c0 3 6 60 26 95l15 42v20a7 7 0 0014 0v-21l-1-2-16-44v-2c-12-20-18-51-22-70l17 7M373 319c6-1 15-4 23-8-5 20-13 50-25 71v1l-19 44v24c0 3 3 6 6 6s7-3 7-6v-20l19-42c19-35 28-92 29-94 0-4-2-7-5-8s-6 1-8 4c-4 7-23 14-36 16l-5 4v5" fill="#fff"/><path d="M364 454H264V224c0-4-4-8-8-8s-7 4-7 8v230H148M216 171s-12 49-47 84c-3 3-3 7 0 10s8 3 11 0c38-37 51-89 51-91 1-4-1-8-6-9-4-1-8 2-9 6zM293 171c-1-4-5-7-9-6s-7 5-6 9c1 2 13 54 52 91 3 3 7 3 10 0s3-8 0-10c-35-35-47-84-47-84z" fill="#fff"/></svg>
