<svg xmlns="http://www.w3.org/2000/svg" viewBox="0 0 512 512"><path d="M430 427c-31-8-51-39-58-52l21-7c5 7 15 21 29 26h2a7 7 0 002-13c-11-4-21-19-24-25-1-3-5-4-8-3l-34 11c-2 1-61 16-109 6-30-7-58-28-79-44l-8-6-14-6-5-2-1-1v-13c1-11 44-169 50-189h1l85-39 27 35v5l-28 30c-1 2-3 2-5 1l-11-10c-1-2-4-2-6-2s-4 2-5 4-9 3-16 3h-3c-3 0-5 1-7 4-1 2-1 5 1 7l5 7 5 91-5 10a7 7 0 007 10c2 0 4-1 6-4l5-10c43-33 82-2 85 1 14 13 15 23 15 23 0 4 3 7 6 7 4 0 7-3 7-7 0-1 0-13-14-29 21-25 45-33 74-24 3 1 7-1 8-4 2-4 0-8-4-9-24-8-58-9-89 28-13-9-48-27-88-3l-5-83v-2l13-4 7 6c7 6 18 5 24-2l28-31c5-6 5-15 1-21l-31-40c-2-3-5-4-8-2l-90 41c-1 0-6 3-8 8-5 15-50 180-50 193v13c0 5 2 9 5 12l9 4 11 5 8 6c21 16 51 38 84 45 44 10 94 0 110-4 7 14 27 49 64 60v12c0 4 3 7 6 7s7-3 7-7v-17c1-2-2-5-5-6z" fill="#fff"/><path d="M316 342c-73 15-104-35-105-37-2-3-6-4-10-2-3 2-4 6-2 9 0 1 10 16 29 29 13 8 34 17 61 17l30-3c4-1 6-5 5-8-1-4-4-6-8-5z" fill="#fff"/></svg>
