<?xml version="1.0" encoding="utf-8"?>
<!-- Generator: Adobe Illustrator 24.1.0, SVG Export Plug-In . SVG Version: 6.00 Build 0)  -->
<svg version="1.1" id="muscle" xmlns="http://www.w3.org/2000/svg" xmlns:xlink="http://www.w3.org/1999/xlink" x="0px" y="0px"
	 viewBox="0 0 512 512" style="enable-background:new 0 0 512 512;" xml:space="preserve">
<g>
	<path d="M430.3,427.1c-31.8-8-51.2-38.8-58.4-52.4l21-7c4.8,7.7,15.1,21.7,29.1,26.3c0.7,0.2,1.4,0.4,2.2,0.4
		c2.9,0,5.5-1.8,6.5-4.7c1.2-3.6-0.7-7.4-4.3-8.6c-11.6-3.9-21.4-19.1-24.2-24.7c-1.5-3-5-4.5-8.3-3.4l-33.5,11.2
		c-2.1,0.6-61.3,16.1-109,5.5c-30.1-6.7-58.6-28-79.4-43.5c-2.8-2.1-5.5-4.1-8-5.9c-3.5-2.6-9-4.7-13.9-6.6
		c-2.1-0.8-4.9-1.9-5.4-2.2c-0.3-0.2-0.4-0.6-0.4-0.8v-13c0.5-10.8,43.6-169,49.9-188.5c0.1-0.2,0.6-0.4,0.8-0.6l84.7-38.7
		l27.1,35.2c1,1.4,0.9,3.4-0.2,4.7l-27.3,30.6c-1.4,1.5-3.6,1.7-5,0.6l-11.1-10.2c-1.6-1.5-3.8-2.2-6-1.8c-2.2,0.4-3.9,1.8-4.8,3.8
		c-1.4,1.8-9.7,3.5-16.8,3.6l-2.7-0.3c-2.7-0.3-5.3,1.1-6.7,3.5c-1.3,2.4-1.1,5.3,0.6,7.5c2.2,2.9,4,5.2,5,6.6l5.4,91.7l-4.8,9.6
		c-1.7,3.4-0.3,7.5,3.1,9.2c1,0.5,2,0.7,3,0.7c2.5,0,4.9-1.4,6.1-3.8l4.9-9.8c43.8-33,82.1-2.4,85.5,0.4
		c13.7,13.7,14.7,22.8,14.7,23.3c0.1,3.7,3.1,6.6,6.8,6.6c3.8,0,6.8-3.1,6.8-6.8c0-1.3-0.5-12.5-14.7-28.5
		c20.9-25.3,45.8-33.5,74.1-24.3c3.6,1.2,7.4-0.8,8.6-4.4c1.2-3.6-0.8-7.4-4.4-8.6c-23.7-7.8-57.8-8.8-88.6,28.2
		c-13.4-8.9-48.7-26.7-88.2-3.1l-4.9-83.5c0-0.5-0.1-1.1-0.3-1.6c4.5-0.7,9.5-1.9,13.5-4.3l6.6,6.1c7.2,6.1,17.9,5.3,24.2-1.7
		l27.3-30.6c5.4-6.1,5.9-15.3,1-21.9l-30.5-39.7c-1.9-2.5-5.4-3.4-8.2-2.1l-89.5,40.9c-1,0.5-6.2,2.9-7.9,8.1
		c-5.2,15.7-50.9,180.3-50.9,193.3v13c0,4.6,2,8.8,5.6,11.6c1.8,1.4,4.3,2.4,8.9,4.2c3.7,1.4,8.7,3.3,10.7,4.8
		c2.5,1.8,5.1,3.8,7.9,5.8c21.8,16.3,51.7,38.6,84.6,45.9c43.3,9.6,93.4-0.4,110.1-4.3c6.7,13.6,27.1,48.5,63.3,60.2v11.7
		c0,3.8,3.1,6.8,6.8,6.8s6.8-3.1,6.8-6.8v-16.9C435.5,430.6,433.4,427.8,430.3,427.1L430.3,427.1z"/>
	<path d="M316,341.5c-72.7,15.6-103.9-34.1-105.2-36.2c-1.9-3.2-6.1-4.3-9.4-2.3c-3.2,1.9-4.3,6.1-2.3,9.4
		c0.4,0.6,9.5,15.5,28.8,28.2c13.3,8.7,33.7,17.6,61.1,17.6c9.1,0,19.1-1,29.8-3.3c3.7-0.8,6-4.4,5.2-8.1
		C323.3,343,319.7,340.7,316,341.5L316,341.5z"/>
</g>
</svg>
