<svg xmlns="http://www.w3.org/2000/svg" viewBox="0 0 512 512"><path d="M467 161c-13-34-68-38-82-38-27-27-52-37-62-40l-6-23c-1-4-4-6-8-5s-6 4-5 8l7 27c0 3 2 5 5 5 0 0 29 7 61 39 2 2 3 2 5 2 17 0 63 6 72 30a7 7 0 009 4c4-1 6-5 4-9zM138 135c32-33 58-40 58-40 3 0 5-2 5-5l7-27c1-4-1-7-5-8s-7 1-8 5l-6 23c-9 4-32 14-59 40-14 0-72 4-85 38a7 7 0 006 10c3 0 5-2 6-5 10-24 58-29 76-29l5-2zM415 241l-25 25h-95c-8 0-16-5-20-12l-12-44c-1-3-4-5-7-5s-6 2-7 5l-12 44c-4 7-12 12-20 12h-88l-25-25c-3-3-7-3-10 0s-3 7 0 10l27 27 5 2h91c14 0 26-8 32-21v-1l7-22 6 22v1c6 13 19 21 33 21h97l5-2 27-27c3-3 3-7 1-10-3-3-7-3-10 0zM153 316a7 7 0 00-4-8c-7-2-26-9-30-17a7 7 0 00-13 3c0 3 6 60 26 95l15 42v20a7 7 0 0014 0v-21l-1-2-16-44v-2c-12-20-18-51-22-70l17 7c-2 22 15 46 16 47 2 3 7 4 10 1 3-2 3-6 1-9-5-7-17-28-13-42zM408 287c-3-1-6 1-8 4-4 7-23 14-36 16l-5 4v5c4 14-8 35-13 42-2 3-2 7 1 9 3 3 8 2 10-1 1-1 18-25 16-47 6-1 15-4 23-8-5 20-13 50-25 71v1l-19 44v24c0 3 3 6 6 6s7-3 7-6v-20l19-42c19-35 28-92 29-94 1-4-1-7-5-8zM256 355c4 0 7-3 7-7v-28l28-6h26c4 0 7-3 7-7s-3-7-7-7h-27l-1 1-33 6-33-6-1-1h-27c-4 0-7 4-7 7s3 7 7 7h26l28 6v28c0 4 3 7 7 7zM324 362h-34-1l-33 7-33-7h-35c-4 0-7 3-7 7s3 6 7 6h33l28 6v42c0 4 3 7 7 7s7-3 7-7v-42l28-6h33c4 0 7-3 7-6s-3-7-7-7zM277 165c0 3 3 6 6 6h2l68-14a7 7 0 00-3-13l-68 13c-4 1-6 5-5 8zM155 144c-4-1-7 1-8 5s2 7 5 8l69 14h1a7 7 0 001-14l-68-13zM245 123c2 4 6 7 11 7s9-3 11-7l29-58c2-4 1-8-3-10-3-1-7 0-9 3l-28 56-28-56c-2-3-6-4-9-3-4 2-5 6-3 10l29 58z"/><circle cx="256" cy="443.7" r="6.8"/></svg>