<svg xmlns="http://www.w3.org/2000/svg" viewBox="0 0 512 512"><path d="M470 465a8 8 0 00-14 4l5 28H51c2-16 7-42 24-74 15-29 31-144 24-176-1-9-4-18-8-28a7 7 0 10-14 5l8 26c5 28-10 140-24 166-20 40-25 72-26 88 0 4 3 8 8 8h426c5 0 8-4 8-8-1-12-3-25-7-39z" fill="#fff"/><path d="M496 3c-1-2-4-3-6-3H22a8 8 0 00-7 10c0 1 10 28 27 58 6 19 8 42 9 61 2 23 2 34 14 65a8 8 0 1014-5c-11-29-11-39-13-61l-3-29c18 23 42 45 71 43 49-4 102 0 122-31 16 25 52 27 90 29a8 8 0 001-15c-45-3-73-6-82-28-1-4-5-7-9-7s-8 3-9 7c-11 29-56 25-114 30-29 2-55-30-72-58-13-21-23-42-28-54h446c-5 12-15 33-28 54-17 28-43 60-72 58-4 0-8 3-8 7-1 4 2 8 7 8 28 2 53-20 71-43l-3 29c-2 27-2 33-18 72-6 15-12 30-15 47a494 494 0 0032 193 8 8 0 1014-6l-8-18c-14-26-29-138-24-166 3-15 9-30 15-45 16-40 17-48 19-76 1-19 3-42 9-61 17-30 27-57 27-58 1-2 1-5-1-7z" fill="#fff"/><path d="M256 155c-4 0-7 3-7 7v62c-20 8-62 22-81 19-8-1-19-14-30-34-10-18-16-35-16-35a8 8 0 00-14 5l16 36c14 27 28 41 42 43 22 3 62-10 82-18v86c-18 9-49 21-62 18-5-1-14-10-24-34-7-17-12-34-12-35a8 8 0 00-14 5l12 36c17 39 31 42 35 43 18 3 49-9 66-17v85c-17 9-42 21-53 18-9-2-23-30-30-55a8 8 0 00-15 5c6 18 22 60 42 65 17 4 48-11 63-20 15 9 46 24 63 20 20-5 36-47 42-65a7 7 0 00-15-5c-7 25-21 53-30 55-11 3-36-9-53-18v-85c17 8 48 20 66 17 4-1 18-4 35-43l12-36a7 7 0 10-14-5c0 1-5 18-12 35-10 24-19 33-24 34-15 3-49-12-63-18v-86c21 8 61 21 83 18 14-2 28-16 42-43l16-36a8 8 0 00-14-5c-10 27-30 67-46 69-19 3-61-11-81-19v-62c1-4-3-7-7-7z" fill="#fff"/></svg>
