<svg version="1.1" id="svg2" xmlns="http://www.w3.org/2000/svg" x="0" y="0" viewBox="0 0 800 640" xml:space="preserve"><style>.st2{fill:#3b455a}.st3{fill:#c5ccd3}.st4{fill:#efbfa5}.st6{fill:#ebb044}.st8{fill:#474ebb}.st9{fill:#d34e4e}.st10{fill:#7fc5a3}.st11{fill:#8ec3cb}.st16{fill:#fff}.st21{fill:#d8a38b}</style><g id="g10" transform="matrix(1.33333 0 0 -1.33333 0 1067)"><g id="g12" transform="scale(.1)"><path id="path14" d="M4 3163h5996v4812H4V3163z" fill="none"/><path id="path16" d="M2733 3785c-160 0-320-3-480-16-60-5-119-16-180-21-120-9-238-25-359-33-98-6-196-10-293-17-91-8-192-6-282 6-67 9-134 14-200 28-74 17-154 28-230 28-110-1-216-1-321-29-36-10-81-27-109-48-64-47-73-167-9-216 107-84 337-116 487-118 165-2 325 7 490 13 154 5 307 12 460 12 314-1 628 0 942 15 294 15 589 10 884 10 303 0 604-2 904-32 131-13 264-17 396-27 117-8 231 1 348 8 99 6 196 25 286 57 71 26 197 104 219 164 61 170-859 166-1000 165-158 0-317-4-475 0-66 2-131 12-196 23-65 10-130 7-195 12-273 18-547 16-820 16h-267" fill="#f1f2f2"/><path id="path18" class="st2" d="M1154 4612c-6 9-13 18-23 22-6 2-13 3-19 3-33 2-63-6-95-8-25-2-43 1-57-25-8-15-11-32-14-48-30-189-54-379-79-569l-17-136-7-53-31-236c-2-15-9-27-14-40l-84-60-16-28 37-17 85 15 59 40 1 36c0 13 1 26 5 39 5 25 15 49 23 74l37 125 79 273c27 94 57 187 85 280 25 85 100 232 45 313"/><path id="path20" class="st2" d="M1475 4556c18-4 35-12 48-25 42-39 16-99 9-148-9-62-14-125-16-189-3-125-9-249-15-374-5-99-38-228-13-325l35-62-16-19-59 5c-8 0-35 47-37 56-8 33 0 66-4 98-4 27-14 53-19 80a9055 9055 0 00-58 377l-40 318c-6 46-17 79 10 117 25 35 58 70 100 86a135 135 0 0075 5"/><path id="path22" class="st3" d="M1557 4344c-31-1-62-1-93 2-69 6-137 21-207 21-7 39-19 79-23 118-4 44 5 90 7 134 4 104 12 208 22 312 92 3 184-7 276-6 23 0 55 6 66-15 16-32 9-73 13-107a1479 1479 0 00-11-458l-50-1"/><path id="path24" class="st3" d="M917 4365l-64 8c-8 1-16 2-21 7-11 9-8 26-5 39 30 130 59 260 90 389 4 21 52 229 64 230l258-3c8 0 17 0 23-5 5-5 7-14 9-21 21-115 36-233 44-350 7-99-48-191-97-275-4-9-10-17-18-22s-17-5-26-5c-86-4-172-1-257 8"/><path id="path26" class="st4" d="M2376 6052l-2 14c-11 92-4 178 1 269 3 73 13 159 70 211 9 8 52 45 12 48-10 1-19-7-20-17 14 24 25 50 31 77v12l-7 7a5888 5888 0 00-33 26l-6-3-51-45c-29-25-18-66-24-100-6-37-20-54-37-85-46-88-73-188-95-285-8-40-15-81-10-121 5-45 26-87 48-127 29-52 65-104 105-149 21-24 45-46 71-66 25-19 34-38 50-67 2-4 4-7 8-10 9-6 22 3 30 12 48 51 92 106 131 164 6 9 12 18 13 29 4 21-9 42-27 54-17 12-39 17-59 23-54 15-106 38-155 68-12 7-25 16-33 29-7 9-10 20-11 32"/><path id="path28" class="st4" d="M3200 5972c63 35 59 108 74 196 15 90 41 212-19 291-7 9-43 53-2 49 9-1 17-11 16-21-10 26-15 54-16 82 0 4 0 8 3 11 1 3 4 5 7 6l33 18 5 1c2 0 3-2 5-4l42-53c24-31 6-69 5-103-1-38 10-56 20-90 29-96 38-198 40-298 1-41 1-82-12-121-13-44-41-81-71-115a631 631 0 00-248-194c-171-54-170 291-14 321 19 3 38 3 57 4 32 3 56 10 75 20"/><path id="path30" class="st4" d="M2967 4222l-11-251c-6-70-4-139-4-209 0-65-17-130 10-192 8-19 28-34 45-13 13 16 9 45 13 64 31 144 81 284 111 428 30 151-29 151-164 173"/><path id="path32" class="st2" d="M2944 3614l-18-41 75-75 72-7 26 37-93 91-62-5"/><path id="path34" class="st4" d="M2546 4233l26-250c7-112 35-222 42-334 1-25-3-53 6-78 9-24 29-26 48-12 25 19 17 58 19 87 13 194 43 384 62 577 0 3 0 6-2 7-1 2-4 2-6 2-19 0-195-5-195 1"/><path id="path36" class="st2" d="M2684 3604l23-40-69-81-71-13-29 34 84 99 62 1"/><path id="path38" d="M3182 4057l52 354c-15 204-103 410-117 614-1 13-2 27-12 36-7 7-18 9-28 11-94 16-190 16-286 15-93 0-277 20-323-72-48-94-34-307-38-414-6-168-7-362 10-529l363 6 30 395 55-258-2-158h296" fill="#c4c9ce"/><path id="path40" class="st6" d="M3056 5871c-5 14-12 28-21 43-40 64-164 108-238 98-64-8-128-9-188-36-46-20-87-86-111-126-80-140-47-312-47-466 0-81-8-163-11-244l-5-160c0-19-9-78 5-94 12-14 90 0 114 1a5206 5206 0 00376-2c70-3 134-17 204-1 9 2 19 5 25 12 8 9 7 23 5 35-15 129-33 258-54 386-10 59-31 124-31 184-1 50 0 101-4 152-4 69 4 154-19 218"/><path id="path42" d="M2928 6360c16-27 24-59 25-91 0-8 1-18 8-23s1-17 6-10c6 7 24 32 25 41 2 21 2 42 0 63-2 19-5 38-17 52-7 8-17 14-26 20-14 8-28 16-43 19-27 5-43-5-20-23 17-14 32-29 42-48" fill="#32376b"/><path id="path44" class="st4" d="M2762 6001c0-13-3-26 8-36 6-5 13-7 21-8 18-3 37-2 55 4 8 2 15 5 21 10 7 7 7 13 7 21l4 30c3 21 4 43 5 65 32 6 69 16 80 50 3 10 4 22 4 33l1 140c0 16 0 32-6 47-9 27-34 42-58 52-61 25-133 24-189-12-15-9-30-21-38-38-14-26-12-57-10-87l6-81c2-32 7-68 31-84 13-9 30-11 41-22 19-20 10-50 16-74l1-10"/><path id="path46" class="st2" d="M2862 6123a61 61 0 00-54-6c-7 2-4 15 4 13 15-5 30-4 44 5 7 5 13-7 6-12zm116 66c-1 8-4 33-17 18-4-5-4-10-5-16l-1-17c-4-12-18-17-29-17-5 0-10 1-14 3l-10 10-23 26c-13 15-39 9-56 6-20-2-40-9-57-22l-5-4-12-9c-16-8-35 0-46 14-5 7-10 15-17 17-7 0-12-4-16-10-3-5-4-12-4-19-1-24 2-49 12-70 23-46 66-52 110-51l52 1c32 1 65 2 92 21 23 16 37 44 43 73 3 15 4 30 3 46"/><path id="path48" class="st2" d="M2985 6441c3 11 5 23 6 34-10-4-22-5-33-3v20c0 6-76 10-82 11-57 4-109 9-161-22-44-26-72-66-79-117-6-49 9-112 38-153-1 13-8 44-5 56 2 13 6 25 12 36 12 22 30 40 51 53 33 21 72 32 111 38 36 5 79 9 115 0 16-5 19-9 30 8 1 3 16 39 14 39h-17"/><path id="path50" class="st6" d="M3154 6013c10 3 20 5 30 3 11-4 19-14 26-23 47-64 82-137 102-213 3-11 5-22 1-32-3-8-10-14-17-19-98-80-158-198-258-276-19 99-32 199-40 300-3 42-6 85-20 124-14 40-89 89-50 117 15 11 89-2 109 0 39 2 79 9 117 19"/><path id="path52" class="st6" d="M2692 5983c-2 5-4 9-7 12-7 8-18 9-28 10-42 4-84 11-126 21-24 5-58 22-88 32l-5 6-6 8c-10 13-24 3-37-12-22-8-34-36-49-54-24-29-59-53-88-78-6-6-12-12-12-19-1-7 3-13 6-18l239-386c-3 5 88 150 95 168 20 44 28 95 48 138 4 9 46 61 39 83l9 16c12 23 18 49 10 73"/><path id="path54" class="st8" d="M2175 7028l301-37c11 15 28 24 47 21l794-99c19-3 34-15 41-33l300-37-40-320-297 37a51 51 0 00-51-29l-794 100c-22 2-38 19-43 40l-297 37 39 320"/><path id="path56" class="st8" d="M4203 6764l-29 13c-5 3-10 4-14 4l32 255c9 78-46 148-123 158l-18 2c-72 9-138-37-155-106 1 71-52 132-124 141l-17 2c-78 10-149-45-158-122l-105-840c-9-78 46-148 123-158l18-2c72-9 138 38 155 106-1-70 52-132 124-141l17-2c78-10 149 45 158 122l32 256h14l32 6c23 4 43 30 47 62l21 173c4 31-8 61-30 71"/><path id="path58" class="st8" d="M2218 7425l-17 3c-72 9-138-38-155-106 1 70-52 131-124 140l-18 3c-77 9-148-46-157-123l-32-256c-5 1-9 2-14 1l-32-6c-24-5-43-30-47-62l-21-173c-4-32 8-62 30-71l29-14c5-2 9-3 14-3l-32-256c-10-77 46-148 123-158l18-2c72-9 138 38 154 106 0-70 53-132 125-141l17-2c78-9 148 45 158 123l104 840c10 77-45 148-123 157"/><path id="path60" class="st8" d="M1609 5791c19-42 23-88 29-137 11-87 16-174 18-261a3253 3253 0 00-26-453c-2-26 9-93-19-107-16-7-34-6-52-4l-319 34c-90 9-184 15-270 45-4 2-9 4-12 8-4 3-5 9-6 14-14 80 7 143 20 220 16 90 19 188 25 280 8 105 25 245 64 345 18 42 43 81 77 113 41 38 96 71 153 71 53 0 107-5 154-30 44-22 80-42 117-75 22-20 37-41 47-63"/><path id="path62" class="st2" d="M1566 6076c-26-26-56-49-88-67 30 58 52 120 65 184 1 4 3 10 7 12 4 3 9 2 13 1 81-21 49-84 3-130"/><path id="path64" class="st4" d="M1335 5996l-13 17c-48 81-46 385 170 345 197-37 70-269-13-351-15-16-35-31-58-38-7-2-5-63-10-72-11-19-38-24-56-16-16 8-32 30-36 47-2 13 20 63 16 68"/><path id="path66" class="st2" d="M1333 6083c-20-10-43 7-57 25-55 74-54 185 3 257 47 61 157 69 133-23-9-33-48-65-60-100-17-50-18-106-19-159"/><path id="path68" class="st2" d="M1707 6354c59-92 43-215 89-314-86 5-169 46-225 112-55 65-211 170-139 255 74 87 222 27 275-53"/><path id="path70" class="st9" d="M1973 5625c-74 76-166 77-233 63-49-10-100 1-141 28-58 39-145 73-244 28-131-60-182-201-183-338-1-101 14-209 56-303 40-91 130-196 240-181 34 4 69-2 98-20 139-85 281 64 355 168 77 108 144 247 130 384-6 65-33 125-78 171"/><path id="path72" class="st10" d="M1645 5810c21 35 55 62 89 77s67 20 99 22c28 1 56 1 83-1a606 606 0 00-112-159c-27-27-59-50-91-58-64-16-112 46-68 119"/><path id="path74" class="st4" d="M728 6389c-3 19-2 37-2 56l1 14c2 5 6 10 9 14l16 18c3 4 6 8 11 10 10 7 25 5 37 2l7-2c4-3 4-8 3-12-5-13-9-17-9-32 0-14 0-27 4-40 5 2 8 7 12 12 4 4 8 9 13 8 7-1 9-10 8-17-3-14-12-26-18-39-9-19-11-56-33-60-14-2-31 1-45 1l-11 46-3 21"/><path id="path76" class="st8" d="M1301 5949c-131 7-261 16-391 28-10 1-20 2-27 9-6 6-8 16-10 25-16 101-28 203-36 305-1 9-2 19-9 24-5 3-12 3-18 3-27-2-61 5-81-19-20-23-11-63-11-92-2-85-8-171-16-256-3-27-8-67 9-91 16-20 50-34 72-49l265-174c19-12 39-25 62-25 35-1 35 24 45 48 13 29 36 53 54 79 40 57 71 119 92 185"/><path id="path78" class="st8" d="M1846 4877c-16-1-33 6-40 20-5 11-4 24-2 35 4 20 10 39 18 57 20 45 83 60 102 5 16-50-26-116-78-117"/><path id="path80" class="st4" d="M1746 4951c-8 11-15 25-10 39 5 13 19 27 31 35 12 9 22-3 29-12 5-9 12-18 21-24 8 12-2 24 5 36 3 5 8 9 13 12 1 1 3 2 5 1l2-2c12-26 35-39 41-69 7-31-12-56-44-61-35-5-71 15-90 41l-3 4"/><path id="path82" class="st11" d="M518 7224l82-768c3-24 112-43 244-43s241 18 243 42l85 768-654 1"/><path id="path84" d="M847 6441h-2c-110 1-200 15-202 34l-68 602h2l-1 1c18-9 132-16 269-16h7c140 0 253 7 264 16v-1l-2-1h2l-70-602c-2-18-91-33-199-33m135 653c-40 2-87 3-137 3h-8a3704 3704 0 012 0h7c50 0 96-1 136-3" fill="#d6e9ec"/><path id="path86" d="M1171 7225c0-13-146-24-326-24s-326 12-326 25c0 14 146 25 326 24 180 0 326-11 326-25" fill="#7bb1b7"/><path id="path88" d="M576 7078c-2 0-3 1-3 2 0 7 61 13 149 15-87-3-146-9-146-17m540 0c-1 7-55 13-134 16 81-3 134-9 134-15v-1" fill="#c8e2e6"/><path id="path90" d="M852 7062h-7a1415 1415 0 00-269 17c0 7 59 13 146 17l116 1h7l137-2c79-4 133-10 134-17-11-9-124-16-264-16" fill="#ebf4f6"/><path id="path92" class="st16" d="M805 6793l2 64c1 12-18 13-18 1-1-20-1-39-3-58l-45 1v41c1 12-18 13-18 1l-2-107c0-12 18-13 19-1v47l45-1-5-57c-1-11 17-12 18 0a1423 1423 0 017 69"/><path id="path94" class="st16" d="M848 6658l-18 1 7 7 5 5c7 8 12 18 9 29-5 19-32 20-37 0-3-12 15-17 18-5 3 0 3-2 0-6l-5-7-8-8c-5-6-9-12-8-20 2-16 24-14 36-15s13 18 1 19"/><path id="path96" class="st16" d="M954 6775c-3-18-16-40-37-37s-26 29-25 47a76 76 0 0021 47c2-3 6-6 10-5 10 1 22-14 26-22 6-9 7-19 5-30zm-25 70c-1 4-4 8-9 8-31 0-46-46-47-71 0-28 14-62 46-62s52 30 54 59c2 25-17 62-44 66"/><path id="path98" class="st11" d="M5015 7182c-15 16-56 22-56 22l-182 4c-20 1-39 8-56 21 6 6 6 15 0 21-5 6-15 6-21 0h-1l-18 19-116-110 19-19-4-4c-7-6-7-15-1-22 6-6 15-6 22 0l3 3c13-18 19-39 18-60l-10-183s3-41 18-57l79-84s157-4 157-164l471-500s268 50 385 365l-474 500c-152 7-154 165-154 165l-79 83"/><path id="path100" class="st6" d="M5492 6678l-239 252-85-95c-70-73-126-124-205-195l-94-76 238-252-1-1a871 871 0 01387 368l-1-1"/><path id="path102" class="st16" d="M5100 6689l70 66-3-120 84 34-18-192-39 112-63-39-31 139"/><path id="path104" class="st2" d="M4704 7264l-139-132c-4-4-11-4-16 0l-69 74c-4 5-4 12 0 16l139 132c5 4 12 4 16 0l70-74c4-4 4-11-1-16"/><path id="path106" d="M4605 7115l116 113 14-9-130-104" fill="#79a7ae"/><path id="path108" d="M4827 6681c-46 48-115 49-115 49l-1 2 1 1c12-1 73-7 115-52m315 297c-42 44-47 106-48 118l1 1 1-1s1-69 46-118" fill="#f0f1f1"/><path id="path110" d="M4869 6565l-1 2c0 53-18 89-41 114-42 45-103 51-116 52l383 363c1-12 6-74 48-118 23-25 57-45 109-47l1-2-173-180-32-31-178-153" fill="#86b8c0"/><path id="path112" d="M5493 6679z" fill="#a4a6a9"/><path id="path114" class="st21" d="M4469 5088c-1 7-1 7-7 11-6 5-14 8-20 12-26 28-37 56-47 93-7 26-20 52-29 77l-57 151c-2 8-5 17-4 25 2 6 6 11 9 16 18 23 38 45 59 66 18 18 34 28 56 40 23 13 14 37 6 59-4 8-39 83-35 86l-212-216c-4-5-9-10-11-17-2-8 1-17 4-25a1805 1805 0 01146-293c11-18 49-54 41-78-1-2-3-5-3-8v-9c3-13 6-25 11-36s13-12 22-16c10-4 16-14 25-19s17-1 25 4a298 298 0 0122 17l1 5c2 19 0 36-2 55"/><path id="path116" class="st21" d="M5037 5983c13 7 27 14 35 26 6 8 9 18 11 27l56 207c-19 20-19 64 17 40 3-2 6-5 10-4 3 0 5 3 7 5l21 28c3 3 6 7 9 8l10 1c23-3 46-13 64-29-13-19-27-36-44-51-6-6-13-11-18-18-22-28-17-82-21-116l-16-138c0-7-1-13-5-19-3-8-11-12-17-17-117-75-241-138-371-187-11 31-29 74-28 107 1 31 46 34 72 43 71 26 140 55 208 87"/><path id="path118" class="st21" d="M4551 5847c-48-16-72-44-74-110-1-80-3-161 9-240 7-44 18-88 25-133 13-90 6-183-16-272-7-29-38-78-15-105 21-25 63-9 90-7l273 13c56 2 171 5 156 92-6 39-45 81-60 120-16 43-27 89-25 135 4 67-8 133-13 201-7 94-11 190-50 277-33 73-198 51-261 38-14-2-27-6-39-9"/><path id="path120" class="st21" d="M5023 3633c17-2 34 3 51 3 3 61 1 119-8 180-29-28-50-9-53-65-1-18 15-91 10-118"/><path id="path122" class="st2" d="M5080 3666c20 6 21-42 21-54-1-6-2-13-1-20 2-7 6-14 11-20l26-39c4-5 8-11 10-18 5-17-6-36-22-42-56-24-100 45-109 90l-3 20c-2 14-10 46-4 59 8 16 26 3 40 8 12 5 22 14 31 16"/><path id="path124" class="st21" d="M4655 3628c-17-5-34-3-51-5-14 59-21 117-22 179 33-23 51-1 63-55 4-18 0-93 10-119"/><path id="path126" class="st2" d="M4588 3642c-3-33-31-67-47-95-2-4-4-7-4-11-1-6 3-11 6-16 4-7 8-14 16-17 7-4 15-3 23-2a414 414 0 0147 12c3 2 5 5 7 9 10 17 18 29 19 49s0 41 5 61c3 10 6 22-2 28-6 5-18 0-26-1-12-1-24 1-36-5l-6-5c-2-2-2-5-2-7"/><path id="path128" class="st21" d="M4622 5856l5-6c8-7 19-11 29-12 14-1 28 1 42 5 19 4 18 15 20 32l1 28c1 6-2 24 1 28 2 2 11 2 15 4 6 4 11 10 15 16 5 10 8 21 11 32l15 57c5 19 10 39 11 59 1 30-5 72-29 93-21 19-52 25-80 27-36 3-74-5-105-26-12-8-24-19-31-33-11-22-8-49-6-75l6-69c3-27 7-58 28-71 11-8 25-9 35-18 11-12 12-31 13-46 0-9 0-18 4-25"/><path id="path130" class="st2" d="M4725 6162l3-7c5-12 3-26 7-38 8-19 31-30 35-50 4-17-7-33-7-50 0-19 12-36 11-54-1-16-10-39-19-52 3 4 30 4 36 8 11 7 12 11 14 23 3 11 0 21 4 33 6 14 17 24 21 39 5 20-6 41-7 62 0 31 26 62 15 91-6 18-24 28-34 43-8 12-11 26-17 39-5 13-15 25-28 29-8 2-16 0-23 2-14 1-25 10-38 14-18 5-50-15-60-31-9-15-4-28 8-41 19-22 63-35 79-60"/><path id="path132" class="st2" d="M4476 6244c-10-8-24-15-33-24-19-19-21-49-21-76 0-23-9-45-5-70 2-16 10-33 24-42 17-11 44-12 52-31 9-21-12-49 2-66 8-10 22-11 33-17 12-7 19-21 26-32 8-12 19-24 33-23 0 21 0 38-10 57-6 11-22 31-11 44 7 10 25 14 24 27 0 6-4 11-7 15a73 73 0 00-9 66c8 22 25 40 45 51 24 12 20 18 26 42 5 21 17 27 36 35 17 8 22 13 28 29 4 12 9 26 2 39-6 10-16 18-26 24-20 14-43 29-67 26-13-1-26-8-40-10-9-1-18 1-27 1-15 0-31-6-44-15-12-10-11-20-17-33-3-7-8-12-14-17"/><path id="path134" class="st2" d="M4527 6334c2 15-1 34-15 38-8 2-16-1-24 0-17 3-24 24-34 38-1 2-3 5-5 5-4 2-8 0-11 0-17-3-31 13-47 18-20 7-44-6-49-27-3-8-2-17-4-26-7-34-57-51-56-86 0-24 24-46 16-68-5-15-23-25-20-40 2-10 12-16 22-15 10 0 18 6 26 13 11 10 19 24 30 35 10 12 25 21 40 20s29-13 44-9c12 2 20 13 32 17 11 3 22-1 33-1 12 0 25 6 25 17v9c2 7 14 7 16 15-6 8-14 5-19 16-3 9-1 21 0 31"/><path id="path136" class="st10" d="M4449 5383c1-14-2-72 20-73 107-7 213 35 318 52 27 5 55 8 83 8 25 1 48-11 54 16 7 26 2 61 3 88 0 58-7 111 6 169 14 57 36 113 65 164 3 5 6 11 6 16 1 10-5 20-7 29-4 14-6 29-9 43-7 27-14 53-23 80-16-14-35-24-55-32-30-12-63-17-93-29-16-6-28-16-43-24-14-7-29-6-37-23-6-13-1-41-1-55 0-19 0-39-4-57-4-24-15-53-40-55-15-2-29 9-40 21-27 32-23 75-43 109-4 7-21 33-26 35-13 6-52-19-64-24-34-15-65-26-95-48-30-21-57-47-82-73-22-24-43-48-63-73-21-28 3-42 22-64 13-15 27-29 42-43 12-11 27-30 43-36 20-9 42 13 55 26-6-6 8-54 10-64 2-27-2-56-2-83"/><path id="path138" class="st2" d="M5101 3765l-6 138c-4 80-8 158-16 237-25 244-35 491-53 736a1063 1063 0 01-20 231c-7 12-23 13-36 12-53-2-108-14-160-12-58 1-120 6-181 3-18-1-36 1-54 3-24 4-48 7-72 2-20-4-20-21-23-41-4-22-5-45-6-67l-4-119c-1-99 15-199 20-298l13-310c5-131 24-262 40-391 6-46 11-92 18-137 2-15 2-38 8-50 12-25 43-22 62-19 17 3 34 7 51 13-7 180 12 364 11 546 0 121 13 242 26 362 2 22 4 46 8 68 5 21 13 41 17 62 4 24 22 25 31 5 11-26 15-58 22-85 36-141 78-280 102-426 29-180 77-358 101-537 16-3 32-5 48-5 18 1 47 3 54 28 3 14 0 37-1 51"/><path id="path140" d="M5008 5096c0 11-20 28-25 38l-15 33-1 1c-2 2-4-1-6-2-6-6-23-2-30-2h-40l-77-1c-103-1-204-7-307 0-4-11-19-46-13-56 3-4 7-4 11-4l32-2 103-3a13499 13499 0 01368-2" fill="#343f51"/><path id="path142" class="st8" d="M3714 3988c43-30 340-425 340-425l-170-131-704 147v131l270 21s-196 29-250 160c-53 131 514 97 514 97"/><path id="path144" class="st2" d="M3095 3654c-14-39-30-92-18-136 14-48 89-82 110-21 4 11 3 26-6 35-19 18-34 39 1 51 13 5 27 4 41 8 5 1 9 3 13 6 4 5 4 11 4 18 1 23 0 46-3 69-1 7-68 13-75 12-25-3-57-16-67-42"/><path id="path146" class="st8" d="M3835 3752l260-147 68 56v64l-328 263-197-215 197-21"/><path id="path148" class="st10" d="M3491 4836c7 5 15 9 23 12 137 54 237-7 281-139 99-297 113-569 46-869-154-9-337-16-490-3-55 4-114 13-151 54-16 18-26 41-34 64a679 679 0 0013 458 1040 1040 0 00312 423"/><path id="path150" class="st4" d="M3813 5134c-71-18-146 30-215 2-45-18-75-66-83-115-4-23-3-47 7-68 6-13 15-24 25-34 15-12 31-22 49-29l-25-46c11-7 6-29 16-41 10-11 29-14 44-10s29 13 41 23c11 8 5 66 17 69 10 2 20 5 29 10 57 26 98 87 103 151 3 30-3 59-8 88"/><path id="path152" class="st2" d="M3643 5134h8c39 1 78-8 113-24 13-6 26-13 35-24 15-15 20-38 19-59 0-22-7-43-14-63 9-1 18 4 25 9 22 15 46 35 60 59 25 43 26 73 68 104 34 26 79 11 107 54 23 35 9 93-31 104-19 5-39 0-53-12-15-14-31-38-49-28-7 4-10 12-14 20-29 60-93 49-145 27-28-13-57-30-88-33-24-3-49 4-74 3-42-1-82-24-108-57-29-38-44-92-25-135 10-22 16-45 23-67 2-8 19-41 26-15 5 20 4 41 10 61 13 49 60 74 107 76"/><path id="path154" class="st9" d="M4371 4678c-104 9-236-47-267-138-31 91-191 147-295 139-275-21-369-333-254-543 62-114 152-213 250-302 82-75 293-233 294-233 0 0 214 156 296 230 99 88 190 187 253 300 118 209-3 522-277 547"/><path id="path156" d="M4097 3602l-9 6 2-1 7-5c1 0 0 0 0 0" fill="#d4d5d5"/><path id="path158" d="M4090 3607l-1 1c-26 19-103 77-174 134l1-1c72-57 149-115 174-134" fill="#3e45a4"/><path id="path160" d="M4098 3602l-8 5c-25 19-102 77-174 134a357 357 0 01149-3c107 18 205 75 288 140 87 68 167 147 235 231 37 44 70 90 99 139-7-41-20-80-41-117-63-113-153-211-252-299-82-73-290-226-296-230" fill="#b94545"/><path id="path162" class="st16" d="M4590 4193l-216-5-76 289c-4 14-24 13-28 0l-170-501-10-29-112 331-18 53c-4 11-21 15-27 4l-83-161-242 1c-19 0-19-28 0-28l251-1c5 0 10 2 13 7l71 137 115-340 18-53c4-13 24-14 28 0l170 502 8 24 67-253c2-6 8-10 14-10l227 4c19 1 19 29 0 29"/><path id="path164" class="st4" d="M3476 4183c17-45 42-85 80-113l94-69c9-6 17-12 23-21 8-13 8-29 10-44 5-32 21-65 51-79 29-15 72-1 79 31-14 19-27 38-41 55-8 10-25 33 3 25 4-1 9-3 13-2 7 1 12 7 14 14 3 6 3 13 1 20-63 1-134 63-168 113-93 132-56 300-87 449-6 30-18 61-41 80-24 20-62 24-84 3-24-22-21-61-16-93l23-140c12-69 19-155 46-229"/><path id="path166" class="st10" d="M3374 4638c-8-63-9-127-3-191 76 12 152 19 229 21-7 67-19 133-35 198-12 48-53 73-103 71-54-2-82-51-88-99"/><path id="path168" class="st4" d="M3945 4657c4 1 8 1 11-2 3-2 4-7 4-11 0-15-5-31-14-44-2-3-5-6-4-10s5-6 9-7l28-11 5-1 7 5c13 15 26 31 31 51 6 19 1 43-16 54-28 18-115 30-117-21 17-8 38-5 56-3"/></g></g></svg>