<svg xmlns="http://www.w3.org/2000/svg" viewBox="0 0 512 512"><path d="M458 227l-54-1c-32-3-75-11-106-20-46-12-65-19-113-14-7 1-12 9-9 16-6-15-3 160-3 108 0 36-6 63-19 125-1 4 1 8 6 9h1c4 0 7-3 7-6 14-63 20-91 20-128 0 56-2-125 3-109 44-4 58 2 103 14 32 8 76 17 109 20l55 1c4 0 7-3 7-8 0-4-3-7-7-7zM157 467c-4-1-9 1-9 5l-6 25H47c7-86-17-181-29-282a8 8 0 00-15 2c12 102 37 200 28 287 0 4 3 8 8 8h109c3 0 6-2 7-6l7-31c1-4-1-8-5-8z" fill="#fff"/><path d="M506 2L375 0c-49 0-137-6-184 0-46 6-78 11-127 20-16 2-41 15-50 32C-3 84 0 127 3 163v25a8 8 0 0015-2v-25c-3-34-6-74 9-102 7-12 32-23 40-25l126-19c76-10 267 0 304 2l6 209h-22c-4 0-7 4-7 8s3 7 8 7l29-1c4 0 7-3 7-7l-6-223c0-4-2-7-6-8z" fill="#fff"/><path d="M411 122h1c4 0 7-3 7-7s-3-8-7-8c-28-1-82-13-82-13-4-1-8 1-9 5s1 8 5 9c3 1 56 13 85 14zM69 175c21-7 30-19 34-28a8 8 0 10-14-6c-4 9-12 15-25 20-4 1-6 5-4 9 1 4 6 6 9 5z" fill="#fff"/></svg>
