<svg xmlns="http://www.w3.org/2000/svg" viewBox="0 0 512 512"><path d="M462 287c-13-34-68-38-82-39-27-26-52-36-62-39l-6-24c-1-4-4-6-8-5s-6 5-5 8l7 28c0 2 2 4 5 5 0 0 29 6 61 39l5 2c17 0 63 5 72 30a7 7 0 009 3c4-1 6-5 4-8zM133 260c32-32 58-39 58-39 3-1 5-3 5-5l7-27c1-4-1-8-5-9s-7 1-8 5l-6 24c-9 3-32 13-59 39-14 1-72 4-85 39a7 7 0 006 9c3 0 5-2 6-4 10-25 58-30 76-30l5-2zM272 291c0 3 3 5 6 5h2l68-14a7 7 0 00-3-13l-68 14c-4 0-6 4-5 8zM150 269c-4-1-7 2-8 5-1 4 2 8 5 8l69 14h1a7 7 0 001-13l-68-14zM240 249c2 4 6 6 11 6s9-2 11-7l29-58c2-3 1-7-3-9-3-2-7 0-9 3l-28 56-28-56c-2-3-6-5-9-3-4 2-5 6-3 9l29 59z" fill="#fff"/></svg>
