<?xml version="1.0" encoding="utf-8"?>
<!-- Generator: Adobe Illustrator 24.1.0, SVG Export Plug-In . SVG Version: 6.00 Build 0)  -->
<svg version="1.1" id="body" xmlns="http://www.w3.org/2000/svg" xmlns:xlink="http://www.w3.org/1999/xlink" x="0px" y="0px"
	 viewBox="0 0 512 512" style="enable-background:new 0 0 512 512;" xml:space="preserve">
<g>
	<path d="M462.1,286.7c-13.6-34-68.6-37.9-82-38.4c-27.4-26.7-52.4-36.6-62-39.7l-5.9-23.5c-0.9-3.7-4.6-5.9-8.3-5
		c-3.7,0.9-5.9,4.6-5,8.3l6.8,27.3c0.6,2.5,2.6,4.4,5.1,5c0.3,0.1,29.2,6.8,61.5,39.1c1.3,1.3,3,2,4.8,2c16.8,0,62.4,5.4,72.2,29.8
		c1.1,2.7,3.6,4.3,6.3,4.3c0.8,0,1.7-0.2,2.5-0.5C461.8,294.2,463.5,290.2,462.1,286.7L462.1,286.7z"/>
	<path d="M132.9,260c32.1-32.1,58-39.1,58.3-39.2c2.4-0.6,4.4-2.5,5-5l6.8-27.3c0.9-3.7-1.3-7.4-5-8.3c-3.6-0.9-7.4,1.3-8.3,5
		l-5.9,23.6c-8.9,3.2-31.6,13.2-58.6,39.5c-13.8,0.4-71.7,4.2-85.4,38.4c-1.4,3.5,0.3,7.5,3.8,8.9c0.8,0.3,1.7,0.5,2.5,0.5
		c2.7,0,5.3-1.6,6.3-4.3c9.8-24.4,57.9-29.8,75.6-29.8C129.9,262,131.7,261.3,132.9,260L132.9,260z"/>
	<path d="M271.6,290.6c0.6,3.2,3.5,5.5,6.7,5.5c0.4,0,0.9,0,1.3-0.1l68.3-13.7c3.7-0.7,6.1-4.3,5.4-8c-0.7-3.7-4.3-6.1-8-5.4
		L277,282.6C273.3,283.3,270.9,286.9,271.6,290.6L271.6,290.6z"/>
	<path d="M149.9,268.9c-3.7-0.8-7.3,1.7-8,5.4c-0.7,3.7,1.7,7.3,5.4,8l68.3,13.7c0.5,0.1,0.9,0.1,1.3,0.1c3.2,0,6-2.2,6.7-5.5
		c0.7-3.7-1.7-7.3-5.4-8L149.9,268.9z"/>
	<path d="M240.1,248.5c2.1,4.1,6.2,6.7,10.9,6.7c4.6,0,8.8-2.6,10.9-6.7l29.4-58.3c1.7-3.4,0.3-7.5-3-9.2c-3.4-1.7-7.5-0.3-9.2,3
		l-28,55.7L223,184c-1.7-3.4-5.8-4.7-9.2-3c-3.4,1.7-4.7,5.8-3,9.2L240.1,248.5z"/>
</g>
</svg>
