<svg version="1.1" id="svg2" xmlns="http://www.w3.org/2000/svg" x="0" y="0" viewBox="0 0 2100 960" xml:space="preserve"><style>.st1{fill:#163342}.st2{fill:#eb4747}.st3{fill:#faa146}.st4{fill:#8e4f3a}.st5{fill:#fccca2}.st6{fill:#b85858}.st7{fill:#693a2b}.st8{fill:#eb7171}.st9{fill:#633029}.st10{fill:#eea886}.st12{fill:#2f4563}.st13{fill:#5279ad}.st14{fill:#e55353}.st16{fill:#a77860}.st17{fill:#d6926f}.st18{fill:#dbdff0}.st19{fill:#434343}.st20{fill:#6b6b6b}.st21{fill:#1c4154}.st22{fill:#285173}.st23{fill:#d1c0ba}.st25{fill:#eddad3}.st26{fill:#ccbbb5}</style><g id="g10" transform="matrix(1.33333 0 0 -1.33333 0 1067)"><g id="g12" transform="scale(.1)"><path id="path14" d="M15875 400H-125v8000h16000V400" fill="none"/><path id="path16" class="st1" d="M8105 5960s164 17 223-140c58-158 114-210 121-293 28-336 185-260 141-453-44-194-75-223-75-223l-375 74-379-2s148 75 115 232c-33 159-115 417-69 594 47 176 200 198 298 211"/><path id="path18" class="st2" d="M8973 2613a892 892 0 10-1784 0 892 892 0 001784 0"/><path id="path20" class="st3" d="M9327 1903s21-73 0-141c-20-68-33-182 15-245 49-62 128-88 241-57s95 120 57 196-130 225-144 274c-13 50-169-27-169-27"/><path id="path22" class="st4" d="M9336 1833s75-31 190 30l-30 68-169-28 9-70"/><path id="path24" class="st4" d="M9449 2158c-23 114-84 615-123 731-40 116-128 261-165 314-38 53-224 208-287 281-63 72-301 235-322 261-22 26-40 63-40 63-188 3-433-26-433-26s-220 25-409 22c0 0-21-32-42-59-22-26-281-189-344-261-63-73-250-228-287-281s-126-198-165-314-94-627-118-740c-23-114-60-217-60-217s56-48 176-29c0 0 159 483 232 619s102 400 155 447 240 104 428 203c189 98 230 178 297 180 66 2 109-4 137-2 27-2 70 4 137 2s108-82 296-181c188-98 376-155 429-202s82-312 155-447c72-136 231-619 231-619 120-19 169 28 169 28l-47 227"/><path id="path26" class="st3" d="M9527 1863s-7-10-33-6c-25 4-86 28-158-24 0 0 182-74 191 30"/><path id="path28" class="st3" d="M6654 1932s-50-96-105-125-289-142-259-238c29-96 345-76 406 0 61 77 110 40 128 114 18 75 6 220 6 220s-53 2-90 14c-38 12-38 32-86 15"/><path id="path30" class="st5" d="M9387 2563c-160-6-272-80-272-80l-19 39c-73 135-102 400-155 447s-241 104-429 202c-188 99-229 179-296 181s-110-4-137-2c-28-2-71 4-137 2-67-2-108-82-297-181-188-98-375-155-428-202s-82-312-155-447l-12-24a547 547 0 01-275 73c19 138 40 266 57 318 39 115 128 261 165 314s224 208 287 281c63 72 322 235 344 261 21 26 42 59 42 59 189 3 409-22 409-22s245 28 433 26c1 0 18-37 40-63 21-26 259-189 322-262 63-72 249-227 287-280 37-53 125-199 165-314 17-53 40-186 61-326"/><path id="path32" class="st4" d="M9266 5393s14 51 8 77c-5 21-16 50-21 69s-18 104-16 125c1 8 28 58 28 76-1 18-5 53 10 53 16-1 29-32 29-32s1 16 14 20c27 6 38-6 38-6s12 15 24 15c26 1 37-12 37-12s12 7 30 4c22-5 28-27 28-27s30 1 36-14 2-29 4-42-14-124-61-197c-39-60-54-159-54-159l-135 50"/><path id="path34" class="st6" d="M9599 5685l-416 65-12-76 416-65 12 76"/><path id="path36" class="st7" d="M9298 5751s-17-98 5-124 31 9 31 9-9-34 18-45c28-10 35 32 35 32s1-28 31-28 28 36 28 36 23-40 46-11c39 50 19 121 19 121s-6 16-35 14c0 0-13 42-59 23 0 0-39 32-61-4 0 1-43 32-58-23"/><path id="path38" class="st8" d="M9248 5961l-56 10a32 32 0 01-37-26l-75-446a32 32 0 0126-36l56-10c17-3 34 9 36 26l76 446c3 17-9 33-26 36"/><path id="path40" class="st8" d="M9664 5897l-56 9a32 32 0 01-37-26l-75-446a32 32 0 0126-36l56-10c17-3 33 9 36 26l76 446c2 17-9 34-26 36"/><path id="path42" class="st4" d="M6910 5390s-14 54-8 80c5 21 16 50 21 70s18 103 16 124c-1 9-28 58-28 76s5 53-10 53c-16-1-29-32-29-32s-1 16-14 20c-27 7-39-6-39-6s-11 15-23 15c-26 1-37-12-37-12s-13 7-30 4c-22-5-29-27-29-27s-29 1-35-14-3-29-4-42c-2-13 14-124 61-197 39-60 54-159 54-159l134 47"/><path id="path44" class="st6" d="M6577 5685l416 65 12-76-416-65-12 76"/><path id="path46" class="st7" d="M6878 5751s17-98-5-124-31 9-31 9 9-34-18-45c-28-10-35 32-35 32s-1-28-31-28-28 36-28 36-23-40-46-11c-39 50-19 121-19 121s7 16 36 14c0 0 12 42 58 23 0 0 39 32 61-4 0 1 43 32 58-23"/><path id="path48" class="st8" d="M6928 5961l56 10c18 3 34-9 37-26l75-446c3-17-9-33-26-36l-56-10a32 32 0 00-36 26l-76 446a32 32 0 0026 36"/><path id="path50" class="st8" d="M6512 5897l56 9c18 3 34-9 37-26l75-446c3-17-8-33-26-36l-56-10a32 32 0 00-36 26l-75 446a32 32 0 0025 36"/><path id="path52" class="st4" d="M7962 5285s19-142 9-240c-9-98 268-26 268-26s-15 213 9 289c24 77-286-23-286-23"/><path id="path54" class="st4" d="M8235 5118s77-36 109-41 246-180 253-198-50-165-72-233c-21-68-114-479-105-507l96-338c-559-110-859-16-859-16s100 276 97 330c-4 54-56 359-93 445-38 86-101 303-101 303s244 190 251 203c7 12 142 39 163 55l261-3"/><path id="path56" class="st5" d="M8344 5077s118-363 158-518c0 0-62-277-69-319 0 0-347 67-695-12 0 0-75 326-83 345 0 0 119 212 172 501 0 0 45 27 78 23 0 0-33-363 206-359 238 3 165 362 165 362s43-11 68-23"/><path id="path58" class="st4" d="M8344 5077s100 34 241-17 124-40 272-67c148-26 216-45 216-45s82 168 120 235c35 61 85 259 85 259l135-28s-55-308-82-398c-75-246-133-293-176-294s-195-16-302 5c-100 20-220 32-305-14l-204 364"/><path id="path60" class="st4" d="M7827 5074s-97 37-237-14-124-40-272-67c-148-26-216-45-216-45s-83 168-121 235c-35 61-85 259-85 259l-135-28s56-308 83-398c75-246 132-293 175-294 44-1 195-16 303 5 99 20 220 32 305-14l200 361"/><path id="path62" class="st4" d="M8127 5868s216-31 185-351c-32-320-223-294-236-294s-192-7-207 383c0 0-8 289 258 262"/><path id="path64" class="st1" d="M8102 5752s101-106 148-160 52-158 52-158 80 97 46 209c-33 113-111 332-309 265-199-68-206-364-183-511 0 0 89 324 246 355"/><path id="path66" class="st9" d="M8017 5237s92-43 182 21c0 0-25-51-91-59-67-7-91 38-91 38"/><path id="path68" class="st10" d="M5568 6429s8 51-2 75c-7 20-23 47-31 65-7 18-32 98-32 119 0 8 21 60 19 77-3 17-12 52 4 53 16 2 34-27 34-27s2 15 16 21c26 10 37-2 37-2s10 18 22 20c28 4 41-10 41-10s11 11 30 10c24-2 33-22 33-22s30 6 39-8 8-28 11-40 1-122-39-200c-32-63-35-162-35-162l-147 31"/><path id="path70" class="st10" d="M3539 6429s-8 51 2 75c7 20 23 47 31 65 7 18 32 98 32 119 0 8-21 60-19 77 3 17 12 52-4 53-16 2-34-27-34-27s1 16-12 21c-27 11-41 0-41 0s-10 17-23 18c-27 4-40-7-40-7s-12 9-31 8c-24-1-33-21-33-21s-31 4-39-10c-9-13-7-28-10-40s-1-122 39-200c32-63 35-162 35-162l147 31"/><path id="path72" d="M6374 6685H2746v77h3628v-77" fill="#6392d1"/><path id="path74" class="st10" d="M4267 5085s-98-52-155-56c-58-4-188 78-242 150-53 72-53 79-114 143s-141 242-161 315-105 221-114 254c-9 34-51 175-67 247-18 77-28 320-28 320l150 11s128-336 174-426c46-91 20-146 65-217 46-71 203-246 242-352s131-122 184-237c52-115 66-152 66-152"/><path id="path76" class="st10" d="M4842 5077s97-52 155-56a197 197 0 0174 20c72 34 142 93 168 131 53 70 53 78 114 142 32 34 70 100 101 166 28 58 50 114 59 149 20 72 106 221 115 254 63 243 82 218 92 572l-149 8s-127-338-172-428c-46-91-21-147-66-218-41-64-175-215-228-321-5-11-10-21-13-31-13-34-31-59-52-81-43-45-97-77-132-155-53-115-66-152-66-152"/><path id="path78" class="st12" d="M5758 1803c-17 41-101 372-140 565-40 194-119 428-143 464-24 37-117 338-141 465s-307 668-320 693c-14 26-44 107-44 107l-407-30-408 30s-30-81-43-107c-14-25-328-599-352-726-25-127-86-395-110-432-24-36-103-270-143-464-39-193-123-524-140-565-18-41 151-43 151-43s247 490 301 580c55 90 106 245 113 344 6 99 76 150 138 226 61 75 358 644 413 696 65 60 96 59 159 0 55-52 352-621 413-696 62-76 132-127 139-226 6-99 57-254 112-344s301-580 301-580 169 2 151 43"/><path id="path80" class="st13" d="M5745 1843s85-111 132-136c48-26 224-98 252-158 20-42-7-124-176-97-168 27-226 118-277 129-51 10-106 50-110 125-3 75 28 61 21 89-6 27 158 48 158 48"/><path id="path82" class="st13" d="M3378 1838s-76-106-123-131c-48-26-223-98-252-158-20-42 7-124 176-97 168 27 226 118 277 129s107 50 110 125-28 61-21 89c7 27-167 43-167 43"/><path id="path84" class="st14" d="M5072 5035c-45 154 22 479 22 479-87 37-199 4-247 4s-181 37-181 37h-214s-133-37-181-37-160 33-247-4c0 0 68-330 23-485 0 0 105-289 130-332s0-201 0-241c-2-57-10-220-22-359 0 0 129-77 404-83 273 17 411 83 411 83-17 166-28 306-35 361-5 39-19 196 6 239 26 43 131 338 131 338"/><path id="path86" class="st10" d="M5359 5521c44-4 70-21 100-31l-5-10c-31-65-69-132-101-166-58-61-61-71-107-133-37 0-68-4-84-14-30-21-66-87-84-123l-11-23-3 16c-10 54-36 226-14 358 7 47 21 89 44 118l17-7c23-10 68-28 92-30 35-2 89 51 156 45"/><path id="path88" class="st10" d="M4047 5029l-10 20c-16 33-50 97-81 118-16 11-48 14-87 13-52 71-53 79-113 142-33 34-70 101-102 166 33 10 59 28 105 33 67 6 121-47 156-45a367 367 0 01109 37c24-30 37-73 45-121 20-134-11-338-22-363"/><path id="path90" class="st10" d="M4696 5730s-15-115 19-184c0 0 34-150-132-161-167-11-174 138-174 138s39 54 9 199 278 7 278 7"/><path id="path92" class="st10" d="M4584 6319s214-30 189-372c-25-343-214-319-227-319-12 0-189-10-212 407 0 0-13 308 250 284"/><path id="path94" class="st10" d="M4772 6043s22 26 31 1c9-26-27-138-30-148 0 0-4-10-10-5-5 6 8 152 8 152"/><path id="path96" class="st10" d="M4338 6038s-24 25-32-1 31-142 33-146c0 0 5-10 10-4 6 5-11 151-11 151"/><path id="path98" d="M4776 5991l-30-43s-1 92-6 106c-6 14 4 65 0 75-5 10-146-31-380-13 0 0 28-82 13-88s-6-107-6-107l-26 28s-32 173-30 202c3 38-14 218 315 194 38-3 74-16 105-38 34-26 70-66 68-122-3-75-23-194-23-194" fill="#e8734d"/><path id="path100" class="st16" d="M4432 5681s97-109 245 5c0 0-40-85-128-89-89-4-117 84-117 84"/><path id="path102" class="st10" d="M4304 5521s5-390 255-402v448s-116-5-255-46"/><path id="path104" class="st10" d="M4815 5521s-5-390-256-402v448s116-5 256-46"/><path id="path106" class="st17" d="M5555 6781s-5-98 22-120 31 13 31 13-5-35 25-41 32 36 32 36 4-28 36-23c31 4 24 38 24 38s30-35 50-3c34 53 4 119 4 119s-9 16-39 10c0 0-19 38-64 13 0 0-45 26-63-11 0 0-50 25-58-31"/><path id="path108" class="st17" d="M3552 6781s5-98-22-120-31 13-31 13 5-35-25-41-32 36-32 36-4-28-36-23c-31 4-25 38-25 38s-29-35-49-3c-34 53-4 119-4 119s9 16 39 10c0 0 19 38 64 13 0 0 45 26 63-11 0 0 50 25 58-31"/><path id="path110" class="st13" d="M6509 6084h-192v1269h192V6084"/><path id="path112" class="st13" d="M6701 6213h-208v1011h208V6213"/><path id="path114" class="st13" d="M6894 6349h-214v739h214v-739"/><path id="path116" class="st13" d="M2623 6084h192v1269h-192V6084"/><path id="path118" class="st13" d="M2431 6213h227v1011h-227V6213"/><path id="path120" class="st13" d="M2239 6349h215v739h-216v-739"/><path id="path122" class="st12" d="M11840 4065s29-80 43-105c13-25 292-560 316-685s115-423 139-459 102-268 141-459 122-518 139-558c18-40-149-43-149-43s-244 484-298 574a894 894 0 00-111 339c-6 98-76 149-136 223-61 75-354 637-408 688-55 51-88 47-88 47v408l412 30"/><path id="path124" class="st12" d="M11034 4065s-30-80-43-105-324-593-348-718c-23-125-84-390-108-426-23-36-102-268-141-459s-121-518-139-558c-17-41 150-43 150-43s243 484 298 574c54 89 104 242 110 339 7 98 76 149 137 223s354 637 408 688 89 47 89 47l-1 408-412 30"/><path id="path126" class="st18" d="M12629 1820s60-91 107-117 220-96 249-155c19-42-8-123-174-96s-224 117-274 127c-50 11-105 50-108 124-4 74 27 61 20 87s180 30 180 30"/><path id="path128" class="st18" d="M10252 1820s-60-91-108-117-220-96-248-155c-20-42 7-123 174-96 166 27 223 117 273 127 51 11 106 50 109 124s-27 61-21 87c7 27-179 30-179 30"/><path id="path130" class="st14" d="M11940 4992c-45 152 22 473 22 473-86 37-197 5-244 5-48 0-179 36-179 36h-212s-130-36-178-36-158 32-244-5c0 0 67-326 22-479 0 0 104-285 129-328 25-42 0-198-1-238-1-56-9-217-21-355 0 0 127-75 399-82 270 18 407 82 407 82-17 165-28 303-35 357-5 39-19 194 6 236 25 43 129 334 129 334"/><path id="path132" class="st10" d="M11962 5465s73-34 108-36c34-3 87 49 154 43s91-41 153-38 83 16 88 39 83 163 50 355c-33 193 60 134 60 134s91-164 109-346c19-181-39-359-41-384-3-24-16-61-34-71-17-10-234-28-308-32-75-3-230 22-272-7-42-28-94-144-94-144s-72 359 27 487"/><path id="path134" class="st10" d="M10905 5465s-73-34-108-36c-34-3-88 49-154 43s-91-41-153-38-83 16-88 39-83 163-50 355c33 193-60 134-60 134s-91-164-109-346c-19-181 39-359 41-384 3-24 16-61 34-71 17-10 233-28 308-32 75-3 230 22 272-7 41-28 89-136 89-136s77 351-22 479"/><path id="path136" class="st10" d="M11568 5678s-16-101 17-169c0 0 36-160-128-171-165-11-172 136-172 136s38 54 9 197c-30 144 274 7 274 7"/><path id="path138" class="st10" d="M11455 6260s212-29 187-367c-24-338-211-315-223-315-13 0-187-10-210 402 0 0-12 304 246 280"/><path id="path140" class="st10" d="M11643 5988s23 26 32 1c9-26-27-137-30-146 0 0-4-10-10-5-5 6 8 150 8 150"/><path id="path142" class="st10" d="M11214 5983s-23 25-31 0c-9-26 31-141 33-145 0 0 4-10 10-4 6 5-12 149-12 149"/><path id="path144" class="st5" d="M11644 5937l-29-42s-1 90-6 104 4 64 0 74c-5 10-144-31-374-13 0 0 27-81 13-87-15-6-6-106-6-106l-25 28s-32 171-30 200c3 38-14 215 310 192 37-3 73-16 103-38 34-25 69-65 67-121-3-73-23-191-23-191"/><path id="path146" class="st16" d="M11308 5630s96-107 242 6c0 0-40-84-127-88-88-4-115 82-115 82"/><path id="path148" class="st10" d="M11181 5473s5-386 252-398v443c0-1-115-5-252-45"/><path id="path150" class="st10" d="M11686 5473s-5-386-253-398v443c0-1 115-5 253-45"/><path id="path152" class="st19" d="M12712 5937a274 274 0 10-548 0 274 274 0 00548 0"/><path id="path154" class="st20" d="M12571 5937a133 133 0 10-266 0 133 133 0 00266 0"/><path id="path156" class="st19" d="M10709 5937a274 274 0 10-549 0 274 274 0 00549 0"/><path id="path158" class="st20" d="M10568 5937a133 133 0 10-267 0 133 133 0 00267 0"/><path id="path160" class="st21" d="M1339 5724s-53 211 77 317a259 259 0 00348 1c72-69 161-209 78-407s-101-151-64-297 82-246 8-313-187-48-198 35-20 378-28 421-221 243-221 243"/><path id="path162" class="st10" d="M1626 5370s151-58 206-66c55-7 35-170 35-170s39-113 36-187c-3-99-50-126-53-133s-45-242-48-283c-4-41 11-93 20-127 11-38 45-177 45-177s-278-84-698-8c0 0 28 108 37 162 6 29 22 84 15 138-8 53-66 277-68 298-2 22-117 139-14 279l34 185s179 82 227 89 226 0 226 0"/><path id="path164" class="st10" d="M1832 5305s73-3 127-43c55-40 92-202 102-229 9-27 110-195 128-248 17-53 26-86 34-84 8 3 115 170 131 210l91 246 77-143 5-12s-75-201-97-273c-23-72-76-241-102-264-25-23-122-55-174-13s-173 234-204 300c-31 65-91 170-91 170s-96 314-27 382"/><path id="path166" class="st10" d="M1173 5281s-77 1-113-31a421 421 0 01-120-177c-16-68-26-191-47-257-21-67-81-239-112-302-31-62-59-323-77-386-19-63-87-272-87-272l108-55s220 483 241 556c22 73 26 163 46 217s108 256 121 294 163 396 39 413"/><path id="path168" class="st22" d="M1158 4188l-63-132c-25-53-118-279-155-435-38-156-120-431-131-510-10-78-48-196-84-259s-119-248-134-368-109-650-109-650 53-50 153 10c0 0 185 496 228 568s110 261 119 331c10 69 80 145 143 304 64 160 323 618 359 711 0 0 13 39 49 27l-14 403h-361"/><path id="path170" class="st22" d="M1877 4194l65-138c25-53 129-288 167-444 37-156 108-422 119-501s48-196 84-259 120-248 135-368c15-121 108-650 108-650s-53-50-152 10c0 0-185 495-228 567s-111 262-120 331c-9 70-79 146-143 305-64 160-323 617-359 711 0 0-9 41-51 25l-347 400 722 11"/><path id="path172" class="st10" d="M1387 5960s-86-135-32-324c53-188 129-200 192-181 77 23 150 183 162 254s60 242-123 264c-84 10-170 7-199-13"/><path id="path174" class="st10" d="M1611 5510s-2-205 26-262c28-58-253-22-253-22s35 231 22 287c-12 56 205-3 205-3"/><path id="path176" class="st21" d="M1337 5761s70 163 139 157c0 0 134-175 252-243 0 0 145 238-197 342 0 0-207 81-194-257"/><path id="path178" class="st16" d="M1420 5494s45-54 94-45c49 8 77 33 77 33s-23-54-83-54c-51 0-88 66-88 66"/><path id="path180" class="st2" d="M1758 5324s87-143 109-190c0 0 115-218-17-320 0 0-14-114-38-209 0 0-292 60-607-9 0 0-52 195-52 221 0 0-124 152-14 279l106 217s223 142 513 11"/><path id="path182" class="st23" d="M2870 5215c0-118-83-213-185-213s-184 95-184 213 82 213 184 213 185-95 185-213"/><path id="path184" d="M2771 5201c0-59-42-107-93-107-52 0-93 48-93 107 0 60 42 107 93 107 51 1 93-47 93-107" fill="#948884"/><path id="path186" class="st10" d="M2527 5002s61 74 98 97c36 23 73 57 69 93-4 35-42 119-65 121-23 3-109-26-109-26l-75-130 82-155"/><path id="path188" class="st25" d="M2612 5235c0-118-83-213-185-213s-185 95-185 213 83 213 185 213 185-95 185-213"/><path id="path190" class="st26" d="M2515 5235c0-63-44-115-99-115s-100 52-100 115 45 115 100 115 99-51 99-115"/><path id="path192" class="st10" d="M1353 5358s-152-336 139-345 178 314 170 346c0 0-121 74-309-1"/><path id="path194" class="st26" d="M651 1887s-17-14-39-12c-23 3-90 31-119 19s-45-143-102-175-230-132-220-217c9-86 241-63 301 8s112 36 160 85c48 50 12 243 19 292"/><path id="path196" class="st26" d="M2386 1888s17-15 40-13c23 3 89 31 119 19 29-12 45-143 102-175s230-132 220-217c-9-86-241-63-301 8s-112 36-160 85c-48 50-13 244-20 293"/><path id="path198" d="M1169 4219s318-7 698 8l16-47s-280-53-732-6l18 45" fill="#3b78ab"/><path id="path200" class="st10" d="M644 3900s-23-24-31-45c-6-17-27-40-36-53-10-13-47-74-51-91-2-7 2-53-4-67-5-13-20-39-8-43 12-5 32 15 32 15s-5-13 5-20c18-13 31-7 31-7s4-16 13-20c20-8 32-2 32-2s7-9 22-12c18-3 30 11 30 11s22-10 32 0 11 22 16 31c6 9 30 99 15 170-14 71 27 130 27 130l-125 3"/><path id="path202" class="st23" d="M795 3581l-338 81 15 62 338-81-15-62"/><path id="path204" d="M545 3625s18 81 43 94c25 12 20-17 20-17s5 29 29 28c24 0 16-35 16-35s9 22 33 12c23-9 10-36 10-36s30 23 38-7c14-50-23-98-23-98s-10-11-32 0c0 0-23-28-52 1 0 0-40-12-45 22 0 0-44-11-37 36" fill="#db9c7c"/><path id="path206" class="st25" d="M436 3481l-39 9c-16 4-26 20-22 36l81 358c4 16 20 26 36 22l39-9c16-4 26-20 22-36l-81-358a30 30 0 00-36-22"/><path id="path208" class="st25" d="M775 3399l-39 9c-16 4-26 20-22 36l81 358c4 16 20 26 36 22l39-9c16-3 26-19 22-35l-81-358a30 30 0 00-36-23"/><path id="path210" class="st1" d="M14502 5480s159-337 49-357c-151-28-212 251-212 251l163 106"/><path id="path212" class="st4" d="M14530 5147s87 68 123 105 199 297 232 348c33 50 70 150 92 193 23 43 243 375 243 375l85-35s-152-384-191-448c-38-64-77-194-107-250-30-57-190-285-219-337-28-52-55-154-55-154s-241 63-203 203"/><path id="path214" class="st4" d="M14213 5320s16-118 8-199 222-22 222-22-12 177 7 240c20 64-237-19-237-19"/><path id="path216" class="st3" d="M13982 4116l-51-129c-20-52-118-266-144-417-27-152-67-427-73-502-6-76-35-191-65-253s-98-244-106-359c-8-116-68-628-68-628s53-46 142 17c0 0 146 484 183 555 36 71 89 256 94 323s66 143 117 299 265 605 286 694c0 0 2 40 55 32l-34 387-336-19"/><path id="path218" class="st3" d="M14659 4113l54-135c21-53 117-266 143-417 27-152 66-427 72-502 6-76 34-191 65-253 30-62 98-244 105-360s66-628 66-628-52-45-141 17c0 0-146 485-182 556s-88 256-93 323c-6 67-66 143-117 299-51 157-267 608-296 700 0 0-6 39-46 27l-301 400 671-27"/><path id="path220" class="st8" d="M13629 1885s-14-15-35-13c-21 1-84 24-111 11-27-12-35-135-87-167-52-33-206-134-194-213 14-80 228-46 280 22 52 69 102 39 145 88 42 48-2 226 2 272"/><path id="path222" class="st8" d="M15011 1875s14-14 35-13c22 2 85 24 112 12 26-13 34-135 86-168s206-134 193-213c-13-80-227-46-279 23s-103 39-145 87c-42 49 2 226-2 272"/><path id="path224" class="st4" d="M14144 5632s-21 25-29-1c-8-25 18-100 21-111 0 0 13-43 18-37 5 5-10 149-10 149"/><path id="path226" class="st4" d="M14511 5629s21 25 29-1c8-25-18-100-21-111 0 0-12-43-18-37s10 149 10 149"/><path id="path228" class="st4" d="M14361 5873s192-30 164-333c-28-304-198-280-210-280-11 1-170-6-184 365 0 0-7 274 230 248"/><path id="path230" class="st1" d="M14168 5643s214-64 316-43c0 0 7-38 22-41s22 73 22 73 5 247-219 249c-223 2-178-267-178-267l3-47s32-12 34 76"/><path id="path232" class="st9" d="M14240 5289s67-64 171-5c0 0-31-51-89-50s-82 55-82 55"/><path id="path234" class="st4" d="M14440 5182s63-30 90-35c27-4 204-149 210-164 6-14-42-136-59-193-18-57-95-397-88-421s74-263 77-283c-463-91-705-13-705-13s79 232 76 276c-3 45-47 298-78 370-31 71-83 251-83 251s202 158 208 168c6 11 108 30 135 44h217"/><path id="path236" class="st4" d="M14101 5145s-97 70-134 107-199 297-232 348c-32 50-70 150-92 193s-243 375-243 375l-84-35s151-384 190-448 78-194 107-250c30-57 191-285 219-337s55-154 55-154 252 61 214 201"/><path id="path238" class="st3" d="M14530 5147s98-301 132-429c0 0-52-231-58-265 0 0-288 56-577-10 0 0-62 271-68 286 0 0 99 176 142 416 0 0 37 22 65 19 0 0-27-301 171-298s137 301 137 301 36-9 56-20"/><path id="path240" class="st4" d="M13450 6094s-21 32-23 52c-1 16 1 40 1 55s-9 79-15 94c-3 6-33 36-36 49-4 13-8 40-19 36s-14-29-14-29-4 11-15 11c-21 0-26-12-26-12s-12 9-21 6c-19-5-24-17-24-17s-11 3-23-3c-15-9-15-26-15-26s-21-5-22-18c-2-12 4-21 5-31 2-10 37-87 87-130 41-35 71-106 71-106l89 69"/><path id="path242" class="st6" d="M13146 6234l288 135 25-53-289-135-25 53"/><path id="path244" class="st7" d="M13350 6345s33-68 22-91c-10-24-24 0-24 0s14-23-4-36c-17-14-31 15-31 15s5-20-17-27-28 20-28 20-8-33-31-17c-39 28-40 83-40 83s2 14 23 18c0 0 1 34 38 29 0 0 22 32 45 11 0 0 25 32 47-5"/><path id="path246" class="st8" d="M13351 6513l21 10c17 8 37 1 45-15l141-291c8-17 1-37-16-45l-21-10c-17-8-37-1-45 15l-141 291c-8 17-1 37 16 45"/><path id="path248" class="st8" d="M13056 6374l34 17c13 6 29 1 35-12l148-304c6-13 1-29-12-35l-35-17c-13-6-29-1-35 12l-148 304c-6 13-1 29 12 35"/><path id="path250" class="st4" d="M15171 6094s21 32 22 52v55c0 15 9 79 15 94 2 6 32 36 36 49 3 13 8 40 19 36s14-29 14-29 4 11 14 11c21 0 27-12 27-12s12 9 20 6c19-5 24-17 24-17s11 3 23-3c15-9 15-26 15-26s22-5 23-18c1-12-4-21-6-31-1-10-36-87-86-130-41-35-71-106-71-106l-89 69"/><path id="path252" class="st6" d="M15475 6234l-289 135-24-53 288-135 25 53"/><path id="path254" class="st7" d="M15271 6345s-34-68-23-91c11-24 24 0 24 0s-14-23 4-36c18-14 32 15 32 15s-6-20 16-27c22-6 28 20 28 20s9-33 32-17c38 28 39 83 39 83s-1 14-23 18c0 0 0 34-38 29 1 0-21 32-44 11 0 0-25 32-47-5"/><path id="path256" class="st8" d="M15270 6513l-21 10c-17 8-37 1-45-15l-141-291c-8-17-1-37 15-45l21-10c17-8 37-1 46 15l141 291c8 17 1 37-16 45"/><path id="path258" class="st8" d="M15565 6374l-35 17c-13 6-28 1-35-12l-147-304c-7-13-1-29 12-35l35-17c13-6 28-1 35 12l147 304c7 13 1 29-12 35"/></g></g></svg>
