<?xml version="1.0" encoding="utf-8"?>
<!-- Generator: Adobe Illustrator 24.1.0, SVG Export Plug-In . SVG Version: 6.00 Build 0)  -->
<svg version="1.1" id="body" xmlns="http://www.w3.org/2000/svg" xmlns:xlink="http://www.w3.org/1999/xlink" x="0px" y="0px"
	 viewBox="0 0 512 512" style="enable-background:new 0 0 512 512;" xml:space="preserve">
<g>
	<path d="M467.1,161.3c-13.6-34-68.6-37.9-82-38.4c-27.4-26.7-52.4-36.6-62-39.7l-5.9-23.5c-0.9-3.7-4.6-5.9-8.3-5
		c-3.7,0.9-5.9,4.6-5,8.3l6.8,27.3c0.6,2.5,2.6,4.4,5.1,5c0.3,0.1,29.2,6.8,61.5,39.1c1.3,1.3,3,2,4.8,2c16.8,0,62.4,5.4,72.2,29.8
		c1.1,2.7,3.6,4.3,6.3,4.3c0.8,0,1.7-0.2,2.5-0.5C466.8,168.8,468.5,164.8,467.1,161.3L467.1,161.3z"/>
	<path d="M137.9,134.5c32.1-32.1,58-39.1,58.3-39.2c2.4-0.6,4.4-2.5,5-5L208,63c0.9-3.7-1.3-7.4-5-8.3c-3.6-0.9-7.4,1.3-8.3,5
		l-5.9,23.6c-8.9,3.2-31.6,13.2-58.6,39.5c-13.8,0.4-71.7,4.2-85.4,38.4c-1.4,3.5,0.3,7.5,3.8,8.9c0.8,0.3,1.7,0.5,2.5,0.5
		c2.7,0,5.3-1.6,6.3-4.3c9.8-24.4,57.9-29.8,75.6-29.8C134.9,136.5,136.7,135.8,137.9,134.5L137.9,134.5z"/>
	<path d="M153.3,316.2L153.3,316.2c0.6-1.8,0.4-3.8-0.5-5.4c-0.9-1.7-2.5-2.9-4.3-3.3c-6.3-1.6-25.3-8.1-29.7-16.9
		c-1.5-3-4.9-4.4-8-3.5c-3.2,0.9-5.2,4-4.9,7.3c0.3,2.4,6.5,59.3,25.9,94.3l15.1,42.7v19.3c0,3.8,3.1,6.8,6.8,6.8
		c3.8,0,6.8-3.1,6.8-6.8v-20.5c0-0.8-0.1-1.5-0.4-2.3l-15.6-44.4c-0.1-0.4-0.3-0.7-0.5-1.1c-11.7-20.8-18.4-51.4-21.8-70.9
		c5.9,3.4,12.1,5.8,16.7,7.3"/>
	<path d="M373.2,319.1c6.1-1.6,14.7-4.2,22.5-8.2c-4.3,19.6-12.5,50.4-24.2,71.4c-0.1,0.2-0.2,0.4-0.3,0.6l-19,44.4
		c-0.4,0.9-0.6,1.8-0.6,2.7v20.5c0,3.8,3.1,6.8,6.8,6.8s6.8-3.1,6.8-6.8v-19.1l18.4-42.8c19.4-34.8,28.9-91.7,29.3-94.1
		c0.6-3.2-1.4-6.4-4.6-7.4l0,0c-3.2-1-6.7,0.4-8.2,3.4c-3.7,7.3-23.4,14.3-36.2,16.8c-1.9,0.4-3.6,1.6-4.6,3.3
		c-1,1.7-1.2,3.7-0.6,5.6"/>
</g>
<path d="M194.7,293.6"/>
<path d="M363.6,454.1H263.5V223.7c0-4.1-3.4-7.5-7.5-7.5c-4.1,0-7.5,3.4-7.5,7.5v230.3H148.4"/>
<path d="M266.4,216.2"/>
<path d="M216.4,170.6c-0.1,0.5-12.2,49.5-47.4,84.1c-3,2.9-3,7.6-0.1,10.6c2.9,3,7.6,3,10.6,0.1c38.4-37.6,51-89.1,51.5-91.3
	c1-4-1.5-8.1-5.6-9C221.4,164.1,217.4,166.6,216.4,170.6z"/>
<path d="M292.6,170.6c-1-4-5-6.5-9-5.6c-4,1-6.5,5-5.6,9c0.5,2.2,13.1,53.7,51.5,91.3c3,2.9,7.7,2.8,10.6-0.1
	c2.9-3,2.8-7.7-0.1-10.6C304.7,220.2,292.7,171.2,292.6,170.6z"/>
</svg>
