<?xml version="1.0" encoding="utf-8"?>
<!-- Generator: Adobe Illustrator 24.1.0, SVG Export Plug-In . SVG Version: 6.00 Build 0)  -->
<svg version="1.1" id="Layer_1" xmlns="http://www.w3.org/2000/svg" xmlns:xlink="http://www.w3.org/1999/xlink" x="0px" y="0px"
	 viewBox="0 0 512 512" style="enable-background:new 0 0 512 512;" xml:space="preserve">
<g>
	<g>
		<path d="M457.6,226.8L457.6,226.8c-23.9,0.2-42.8-0.3-53.5-1.2c-31.7-2.8-75.2-11-106.1-19.2c-45.8-12-64.8-19.4-112.7-14.3
			c-7.7,0.8-12.5,8.8-9.6,16c-5.9-14.7-3,159.9-2.5,107.7c-0.3,35.8-6.5,63.1-19.5,124.9c-0.9,4.1,1.7,8,5.8,8.9
			c0.5,0.1,1,0.2,1.5,0.2c3.5,0,6.6-2.4,7.3-6c13.2-62.8,19.4-91,19.8-127.8c-0.5,56.2-2.6-124.7,3-109.3
			c43.7-3.7,57.9,2.5,103,14.3c31.5,8.3,75.7,16.7,108.6,19.6c14.3,1.3,37.8,1.4,54.9,1.3c4.1,0,7.5-3.4,7.4-7.6
			C465.1,230.2,461.7,226.8,457.6,226.8L457.6,226.8z"/>
		<path d="M156.6,466.5c-4-0.9-8.1,1.6-9,5.7c-1.8,7.8-3.7,16-5.8,24.8H47.1c7.3-85.6-17.4-181.1-29-282.2c-0.5-4.1-4.2-7.1-8.3-6.6
			c-4.1,0.5-7.1,4.2-6.6,8.3C15,319.3,39.8,417.3,31.4,503.8c-0.4,4.4,3,8.2,7.5,8.2h109c3.5,0,6.5-2.4,7.3-5.8
			c2.7-11.1,5-21.2,7.2-30.8C163.2,471.4,160.7,467.4,156.6,466.5L156.6,466.5z"/>
		<path d="M506.2,2.4c-6-1.4-69.9-2.6-131.3-2.4C325.6,0.2,238-6.2,190.7,0C144.5,6,112.5,11.3,64,19.5
			c-16.2,2.7-40.9,15.9-50.1,32.7C-3.3,83.6-0.5,127.2,3.2,163c0.9,8.5-1.1,15,0,25c0.5,4.1,4.2,7.1,8.3,6.6
			c4.1-0.5,7.1-4.2,6.6-8.3c-1.1-10,0.9-16.5,0-24.9c-3.6-34.8-6.1-74.4,9-102.1C33.8,47,58.9,35.5,66.5,34.3
			c48.3-8.1,80.2-13.4,126.1-19.4c75.9-9.9,266.9,0,304.4,1.8l5.7,208.9c-6.2,0.3-13.6,0.5-21.4,0.7c-4.1,0.1-7.4,3.6-7.3,7.7
			c0.1,4.1,3.4,7.3,7.5,7.3c0.1,0,0.1,0,0.2,0c11.3-0.3,21.5-0.7,29-1.1c4-0.2,7.1-3.5,7.1-7.5L512,9.7C512,6.2,509.6,3.2,506.2,2.4
			L506.2,2.4z"/>
		<path d="M411.3,122.2c0.1,0,0.3,0,0.4,0c4,0,7.3-3.1,7.5-7.1c0.2-4.1-3-7.7-7.1-7.9c-28-1.5-81.9-13.4-82.5-13.6
			c-4-0.9-8,1.7-8.9,5.7s1.7,8.1,5.7,8.9C328.6,108.8,382.1,120.7,411.3,122.2z"/>
		<path d="M69.3,174.8c20.5-7.3,29.4-19.3,33.2-28.1c1.7-3.8-0.1-8.2-3.9-9.9s-8.2,0.1-9.9,3.9c-3.8,8.8-12.1,15.5-24.5,19.9
			c-3.9,1.4-5.9,5.7-4.6,9.6C61.2,174.1,65.5,176.2,69.3,174.8z"/>
	</g>
</g>
</svg>
