<svg version="1.1" id="svg2" xmlns="http://www.w3.org/2000/svg" x="0" y="0" viewBox="0 0 2100 960" xml:space="preserve"><style>.st1{fill:#163342}.st2{fill:#eb4747}.st3{fill:#faa146}.st4{fill:#8e4f3a}.st5{fill:#fccca2}.st6{fill:#b85858}.st7{fill:#693a2b}.st8{fill:#eb7171}.st9{fill:#633029}.st10{fill:#eea886}.st12{fill:#2f4563}.st13{fill:#5279ad}.st14{fill:#e55353}.st16{fill:#a77860}.st17{fill:#d6926f}.st18{fill:#dbdff0}.st19{fill:#434343}.st20{fill:#6b6b6b}.st21{fill:#1c4154}.st22{fill:#285173}.st23{fill:#d1c0ba}.st25{fill:#eddad3}.st26{fill:#ccbbb5}</style><g id="g10" transform="matrix(1.33333 0 0 -1.33333 0 1066.67)"><g id="g12" transform="scale(.1)"><path id="path14" d="M15875 400H-125v8000h16000V400" fill="none"/><path id="path16" class="st1" d="M8105 5960.4s163.6 17.1 222.5-140.8c58.9-158 114.4-209.7 121.4-292.6 28.1-335.6 184.8-259.7 140.7-453.2-44.1-193.5-74.6-222.7-74.6-222.7l-374.7 73.5-379.6-1.2s148.5 74.2 115.4 232.1c-33 158-115.4 416.9-68.9 593.2 46.6 176.2 200.1 198.3 297.8 211.7"/><path id="path18" class="st2" d="M8972.9 2613.2c0-492.6-399.3-892-892-892s-892 399.3-892 892 399.3 892 892 892 892-399.4 892-892"/><path id="path20" class="st3" d="M9327.4 1903s20.3-72.7 0-140.7c-20.3-68.1-33.4-181.9 15.1-244.8 48.4-62.8 127-89 240.9-57.6s94.2 120.4 56.3 196.3c-38 75.9-130 224.8-143.3 274.2-13.4 49.6-169-27.4-169-27.4"/><path id="path22" class="st4" d="M9336.4 1832.9s74.3-30.6 190 29.9l-30.2 67.7-168.9-27.5 9.1-70.1"/><path id="path24" class="st4" d="M9449.2 2158.3c-23.6 113.9-84.4 614.6-123.7 730.4-39.3 115.8-127.6 261.1-164.9 314.1-37.3 53-223.8 208.1-286.7 280.8-62.8 72.7-300.4 235.6-322 261.7-21.6 26.1-39.4 62.4-39.4 62.4-188.9 2.9-433.7-25.6-433.7-25.6s-219.8 24.9-408.6 22.1c0 0-20.8-32.7-42.4-58.8-21.6-26.1-281.2-189.1-344-261.7-62.8-72.6-249.4-227.8-286.7-280.8-37.3-53-125.7-198.3-164.9-314.1-39.3-115.9-94.3-626.4-117.8-740.2-23.6-113.9-60.4-216.8-60.4-216.8s56.4-48.3 176.2-28.7c0 0 159.1 483 231.7 618.5s102.1 400.6 155.1 447.7c53 47.1 240.3 104.1 428.4 202.2 188.1 98.2 229.4 178.7 296.1 180.6 66.8 2 109.7-3.9 137.3-2 27.6-2 70.6 3.9 137.3 2 66.8-2 108-82.5 296.1-180.6 188.1-98.2 375.4-155.1 428.4-202.2 53-47.1 82.5-312.2 155.1-447.7 72.7-135.5 231.7-618.5 231.7-618.5 119.8-19.6 168.9 27.5 168.9 27.5s-23.6 113.8-47.1 227.7"/><path id="path26" class="st3" d="M9526.5 1862.8s-6.6-9.9-32.1-6c-25.5 3.9-86.1 28.7-157.9-23.9-.1 0 181.9-74.1 190 29.9"/><path id="path28" class="st3" d="M6653.9 1931.7s-49.8-95.4-104.8-124.9-288.6-141.4-259.2-237.6c29.5-96.2 345.6-76.6 406.5 0 60.9 76.6 110 39.3 127.6 113.9 17.7 74.6 6.1 219.9 6.1 219.9s-53.2 2-90.5 13.8c-37.4 11.7-37.9 31.8-85.7 14.9"/><path id="path30" class="st5" d="M9387.2 2562.9c-160.2-5.8-272.4-80.2-272.4-80.2-6.8 14.9-13.2 28-19 38.8-72.7 135.5-102.1 400.6-155.1 447.7-53 47.1-240.3 104.1-428.4 202.2-188.2 98.2-229.4 178.7-296.2 180.6-66.8 2-109.7-3.9-137.3-2-27.6-2-70.6 3.9-137.3 2-66.8-2-108-82.5-296.1-180.6-188.1-98.2-375.4-155.1-428.4-202.2-53-47.1-82.5-312.2-155.1-447.7-3.7-6.9-7.7-14.7-11.8-23.4-112 75.4-272.3 73.3-275.2 73.2 19.4 137.4 39.9 266 57.3 317.3 39.3 115.8 127.6 261.1 164.9 314.1 37.3 53 223.8 208.1 286.7 280.8 62.8 72.7 322.4 235.6 344 261.7 21.6 26.1 42.4 58.8 42.4 58.8 188.9 2.9 408.6-22.1 408.6-22.1s244.8 28.5 433.7 25.6c0 0 17.8-36.3 39.4-62.4 21.6-26.1 259.2-189 322-261.7 62.8-72.6 249.4-227.8 286.7-280.8 37.3-53 125.7-198.3 164.9-314.1 17.9-52.7 40.4-185.7 61.7-325.6"/><path id="path32" class="st4" d="M9265.5 5393.4s14.2 50.4 8.4 76.4c-4.8 21.2-16.2 50.6-21.2 69.7s-17.6 103.6-15.4 124.5c.9 8.5 27.4 58.4 27.3 76-.1 17.6-4.6 53.4 10.8 52.7 15.4-.7 28.3-31.7 28.3-31.7s.9 16 14.5 19.6c26.5 6.9 38.1-5.9 38.1-5.9s11.7 15.5 23.5 15.6c26.1.2 36.9-12.5 36.9-12.5s12.6 7.6 30 3.8c22.3-4.8 28.8-26.3 28.8-26.3s29.2.4 35.4-14.7 2.6-29.1 4.2-42c1.6-12.9-14.2-124-61.5-197-38.5-59.4-53.6-158.8-53.6-158.8l-134.5 50.6"/><path id="path34" class="st6" d="M9598.6 5685.3l-415.9 64.8-11.9-76.4 415.9-64.8 11.9 76.4"/><path id="path36" class="st7" d="M9298.2 5751.4s-17.3-98.4 5.1-124.4 30.6 9.1 30.6 9.1-8.7-34.6 18.5-44.8c27.2-10.2 34.6 31.5 34.6 31.5s.5-28.1 30.7-28.2c30.1-.1 28.3 36 28.3 36s22.9-39.5 45.9-10.3c38.9 49.3 19 120.2 19 120.2s-6.4 16.6-35.4 14.7c0 0-13 41.9-58.8 22.4 0 0-39.2 32.3-60.4-3.2 0 .2-43.6 32.1-58.1-23"/><path id="path38" class="st8" d="M9247.7 5961.3l-56 9.5a31.64 31.64 0 01-36.5-26l-75.3-445.6a31.64 31.64 0 0126-36.5l56-9.5c17.3-2.9 33.6 8.7 36.5 26l75.3 445.6c2.9 17.2-8.8 33.6-26 36.5"/><path id="path40" class="st8" d="M9663.5 5896.5l-56 9.5a31.64 31.64 0 01-36.5-26l-75.3-445.6a31.79 31.79 0 0126-36.6l56-9.5c17.3-2.9 33.6 8.7 36.6 26l75.3 445.6c2.8 17.3-8.8 33.7-26.1 36.6"/><path id="path42" class="st4" d="M6910 5390.3s-13.8 53.5-7.9 79.5c4.8 21.2 16.2 50.6 21.2 69.7s17.6 103.6 15.4 124.5c-.9 8.5-27.4 58.4-27.4 76 .1 17.6 4.6 53.4-10.8 52.7-15.4-.7-28.3-31.7-28.3-31.7s-.9 16-14.6 19.6c-26.5 6.9-38.1-5.9-38.1-5.9s-11.7 15.5-23.5 15.6c-26 .2-36.9-12.5-36.9-12.5s-12.6 7.6-30 3.8c-22.3-4.8-28.8-26.3-28.8-26.3s-29.2.4-35.4-14.7c-6.2-15.1-2.6-29.1-4.2-42-1.6-12.9 14.2-124 61.5-197 38.5-59.4 53.6-158.8 53.6-158.8l134.2 47.5"/><path id="path44" class="st6" d="M6577.4 5685.3l415.9 64.8 11.9-76.4-415.9-64.8-11.9 76.4"/><path id="path46" class="st7" d="M6877.8 5751.4s17.3-98.4-5.1-124.4-30.6 9.1-30.6 9.1 8.7-34.6-18.5-44.8c-27.2-10.2-34.6 31.5-34.6 31.5s-.5-28.1-30.6-28.2c-30.1-.1-28.3 36-28.3 36s-22.9-39.5-45.9-10.3c-38.9 49.3-19 120.2-19 120.2s6.4 16.6 35.4 14.7c0 0 12.9 41.9 58.8 22.4 0 0 39.1 32.3 60.4-3.2-.2.2 43.5 32.1 58-23"/><path id="path48" class="st8" d="M6928.3 5961.3l56 9.5c17.3 2.9 33.6-8.7 36.5-26l75.3-445.6c2.9-17.3-8.7-33.6-26-36.5l-56-9.5a31.64 31.64 0 00-36.5 26l-75.3 445.6a31.69 31.69 0 0026 36.5"/><path id="path50" class="st8" d="M6512.4 5896.5l56 9.5c17.3 2.9 33.6-8.7 36.6-26l75.3-445.6c2.9-17.3-8.7-33.6-26-36.6l-56-9.5a31.64 31.64 0 00-36.5 26l-75.3 445.6a31.6 31.6 0 0025.9 36.6"/><path id="path52" class="st4" d="M7961.9 5284.8s19.1-142.1 9.6-239.9c-9.6-97.8 267.8-26.1 267.8-26.1s-15.5 212.8 8.4 289.4c23.9 76.4-285.8-23.4-285.8-23.4"/><path id="path54" class="st4" d="M8234.8 5118.4s76.8-36.3 109.1-41.7 245.7-179.4 252.9-197.3c7.2-17.9-50.2-165-71.7-233.2-21.5-68.1-114.2-478.9-105.5-507.6 8.7-28.7 89.5-309.3 96.1-337.1-558.4-110-858.2-16.6-858.2-16.6s100 276.5 96.4 330.3c-3.6 53.8-55.6 358.7-93.3 444.8-37.7 86.1-100.4 303.1-100.4 303.1s243.9 190.1 251.1 202.7c7.2 12.6 141.3 38.9 162.8 55.1l260.7-2.5"/><path id="path56" class="st5" d="M8343.9 5076.7s117.7-362.6 158.4-517.6c0 0-62-277.3-69.3-318.7 0 0-347.5 66.9-695.3-12 0 0-75.1 326-82.4 344.4 0 0 119.1 212.2 171.6 501.6 0 0 44.7 26.6 78.1 22.7 0 0-32.8-362.9 205.8-359.3 238.5 3.6 165.4 362.7 165.4 362.7s42.7-11.4 67.7-23.8"/><path id="path58" class="st4" d="M8343.9 5076.7s100.6 34 240.7-17 124.4-39.7 272.3-66.3c147.9-26.6 216-45 216-45s82.4 167.8 120.4 234.3c35.2 61.5 85.1 259.2 85.1 259.2l134.8-27.5s-55.4-308.8-82.5-397.9c-74.6-246.1-132.2-293.2-175.4-294.5-43.2-1.3-195-15.7-302.4 5.2-99.7 19.5-220.3 31.4-305.2-14.4l-203.8 363.9"/><path id="path60" class="st4" d="M7826.9 5074.3s-96.8 36.4-236.8-14.6c-140.1-51-124.4-39.7-272.3-66.3-147.9-26.6-216-45-216-45s-82.4 167.8-120.4 234.3c-35.1 61.5-85.1 259.2-85.1 259.2l-134.8-27.5s55.4-308.8 82.5-397.9c74.6-246.1 132.2-293.2 175.4-294.5 43.2-1.3 195-15.7 302.4 5.2 99.7 19.5 220.3 31.4 305.2-14.4l199.9 361.5"/><path id="path62" class="st4" d="M8126.6 5868s216.6-31.3 184.9-351c-31.7-319.8-222.9-294.4-235.7-294.1-12.8.3-191.8-6.6-207.3 383.5.1 0-7.2 288.6 258.1 261.6"/><path id="path64" class="st1" d="M8101.8 5752.1s101.2-106.4 148.2-160.3c47-53.9 52.4-158 52.4-158s79.2 96.7 46.1 209.4c-33.1 112.6-111.5 331.8-309.8 264.5-198.4-67.4-205.7-363.7-182.4-510.6 0 .1 89 324.4 245.5 355"/><path id="path66" class="st9" d="M8016.5 5237.4s92.3-43.6 182.1 20.8c0 0-25-51.5-91.1-58.9-66.1-7.3-91 38.1-91 38.1"/><path id="path68" class="st10" d="M5567.6 6428.8s8.3 50.9-1.2 75.4c-7.8 19.9-23.5 46.9-31.2 64.7-7.7 17.9-31.9 98.1-32.3 118.8-.2 8.4 21.1 60.6 18.7 77.7-2.4 17.1-11.8 51.2 4.4 52.7 16.2 1.5 33.7-26.9 33.7-26.9s2.1 15 15.9 20.4c26.8 10.4 37.2-1.5 37.2-1.5s10.4 18.4 22.7 20.2c27.2 3.9 40.5-9.9 40.5-9.9s11.5 10.5 30.2 9.3c23.9-1.5 32.5-21.5 32.5-21.5s30.8 5.5 39.3-8.3 7.6-27.5 10.9-39.7c3.3-12.3 1.3-122.4-38.8-200-32.5-63.1-35.5-161.8-35.5-161.8l-147 30.4"/><path id="path70" class="st10" d="M3539.3 6428.8s-8.3 50.9 1.2 75.4c7.7 19.9 23.5 46.9 31.2 64.7 7.7 17.9 31.9 98.1 32.3 118.8.2 8.4-21.1 60.6-18.7 77.7 2.4 17.1 11.8 51.2-4.4 52.7-16.2 1.5-33.7-26.9-33.7-26.9s1.1 15.7-12.7 21c-26.8 10.4-40.6-.4-40.6-.4s-10.2 16.7-22.6 18.5c-27.2 3.9-40.2-7-40.2-7s-12.2 9.1-30.9 7.9c-23.9-1.5-33.5-21.5-33.5-21.5s-30.5 4.4-38.9-9.3c-8.4-13.8-6.6-27.9-9.9-40.2-3.3-12.3-1.3-122.4 38.8-200 32.6-63.1 35.5-161.8 35.5-161.8l147.1 30.4"/><path id="path72" d="M6374.4 6685.3H2746.2v76.2h3628.2v-76.2" fill="#6392d1"/><path id="path74" class="st10" d="M4267 5085.4s-97.7-52.2-155.4-56.3c-57.6-4.1-188 78.3-241.4 149.9-53.3 71.6-53.4 79.2-114.5 143.3-61.1 64.1-140.6 241.7-160.7 314.5-20 72.8-105.1 221-114.1 254.5-8.9 33.5-50.5 174.3-67.3 246.4-18.1 77.5-27.6 320.6-27.6 320.6l149.8 11.2s128.5-336 174.1-426.5c45.6-90.5 20.3-146.3 65.5-217.3 45.3-71 202.6-246.1 241.5-352 38.9-106 131-121.3 183.6-236.5 52.8-115.4 66.5-151.8 66.5-151.8"/><path id="path76" class="st10" d="M4841.6 5077.1s97.8-52.2 155.4-56.3c16-1.2 37.7 4.5 61.8 14.6 4.2 1.7 8.3 3.6 12.6 5.7 71.1 33.5 141.1 92.7 168 131.1 52.2 70.2 52.7 78.1 113.3 141.8 32.6 34.1 70.3 100.4 101.6 166 27.4 57.6 49.8 114.4 59.1 148.5 20 72.8 105.1 221.1 114.1 254.5 63.8 243.1 82.4 217.7 92.6 571.6l-148.9 7.9s-127.1-337.5-172.7-427.9c-45.5-90.5-20.2-146.2-65.5-217.3-41.1-64.5-174.7-214.9-228-321.3-5.4-10.7-9.9-21-13.5-30.8-12.6-34.4-30.8-59.2-51.5-81-43-45.4-96.6-77.6-132.1-155.5-52.6-115.2-66.3-151.6-66.3-151.6"/><path id="path78" class="st12" d="M5758.4 1803.1c-17.6 40.8-101 371.7-140.6 565.1-39.5 193.4-118.6 427.6-142.8 464.1-24.2 36.5-116.8 337.8-141 464.6-24.2 126.8-307.2 667.7-320.4 693.5-13.2 25.8-43.4 106.4-43.4 106.4l-407.6-29.9-407.6 29.9s-30.2-80.6-43.4-106.4c-13.2-25.8-327.9-599.8-352-726.6-24.2-126.8-85.2-394.9-109.3-431.5-24.2-36.5-103.3-270.7-142.8-464.1-39.5-193.4-123-524.2-140.6-565.1-17.6-40.8 151.6-43 151.6-43s246.1 489.9 301 580.1c54.9 90.3 105.5 244.9 112.1 343.8 6.6 98.8 76.9 150.4 138.4 225.6 61.5 75.2 358.1 644.6 413 696.1 64.7 60.8 96.4 59.2 159.5 0 54.9-51.6 351.5-620.9 413-696.1 61.5-75.2 131.8-126.8 138.4-225.6 6.6-98.8 57.1-253.5 112-343.8 54.9-90.2 301-580.1 301-580.1s169 2.2 151.5 43"/><path id="path80" class="st13" d="M5745.4 1842.8s84.3-110.4 132.1-136.2c47.8-25.8 223-98 251.5-157.6 20-41.8-7.4-124.3-175.8-97-168.5 27.3-226.1 118.2-277.2 128.8-51.1 10.6-106.5 50.1-109.8 124.9-3.3 74.8 27.4 61.5 20.8 88.8-6.5 27.3 158.4 48.3 158.4 48.3"/><path id="path82" class="st13" d="M3378.3 1837.9s-76-105.5-123.8-131.2c-47.8-25.8-223-98-251.6-157.6-20-41.8 7.4-124.3 175.9-97 168.5 27.3 226.1 118.2 277.2 128.8 51.1 10.6 106.5 50.1 109.8 124.9 3.3 74.8-27.4 61.5-20.8 88.8 6.7 27.2-166.7 43.3-166.7 43.3"/><path id="path84" class="st14" d="M5071.7 5034.5c-44.8 154.5 22.6 479 22.6 479-87.1 37.5-199.2 4.6-247.3 4.6-48.1 0-180.6 36.6-180.6 36.6H4452s-132.6-36.6-180.6-36.6-160.2 32.9-247.3-4.6c0 0 67.7-329.9 22.8-484.5 0 0 104.9-289.2 130.2-332 25.3-42.8.3-200.9-.5-240.8-1.2-57.1-9.9-219.7-21.5-359.4 0 0 128.6-76.6 404.2-83.1 272.8 17.7 411.1 83.1 411.1 83.1-17.3 166.4-28.4 306.5-35.3 360.7-5 39.6-19.1 196.8 6.3 239.6 25.2 42.7 130.3 337.4 130.3 337.4"/><path id="path86" class="st10" d="M5358.9 5520.6c43.8-4 69.9-20.6 100.2-30.7-1.5-3.4-3.1-6.6-4.7-9.9-31.3-65.5-69-131.8-101.6-166-58.2-61.1-61-70.9-107.2-133.5-36.8 0-68-3.1-83.5-13.7-30.3-20.5-66.1-86.5-84-122.5-7.1-14.3-11.4-23.8-11.4-23.8s-1.2 6.1-3.1 16.9c-9.4 53.9-35.6 225.7-13.9 357.3 7.8 47 21.6 88.9 44.6 118.6 0 0 6.4-2.9 16.2-7.2 23.8-10.2 68-28 92.6-29.7 34.8-2.3 88.8 50.4 155.8 44.2"/><path id="path88" class="st10" d="M4046.8 5029s-3.6 8.1-9.7 20.4c-16.2 33-50.3 96.6-81 117.4-16 10.8-48.6 13.9-87 13.7-52.2 70.2-52.7 78.1-113.3 141.8-32.6 34.1-70.3 100.4-101.6 166 32.5 9.9 59 28.1 105.2 32.3 67 6.2 121-46.5 155.8-44.1 23.2 1.7 63.8 17.5 88.3 27.8 12.3 5.2 20.5 9.1 20.5 9.1 23.5-30.4 37.2-73.1 44.5-120.9 20.3-134.2-10.7-338.6-21.7-363.5"/><path id="path90" class="st10" d="M4695.7 5729.5s-14.5-114.5 19.1-183.6c0 0 34.4-150.2-132.1-161.1-166.4-11-173.6 138.2-173.6 138.2s38.7 54.4 8.9 199.4c-29.8 145 277.7 7.1 277.7 7.1"/><path id="path92" class="st10" d="M4583.7 6318.5s214.7-29.7 189.7-371.9c-25-342.3-214.5-318.4-227.1-318.4-12.6.1-189.5-10.4-212.5 406.3 0 0-12.9 308.3 249.9 284"/><path id="path94" class="st10" d="M4771.5 6043.1s22.8 26 31.9.4c9.1-25.7-27.4-137.9-30.1-147.3 0 0-4-10.1-9.8-4.7-5.6 5.4 8 151.6 8 151.6"/><path id="path96" class="st10" d="M4337.5 6037.9s-23.4 25.5-31.9-.4 31.8-142.2 33.8-146.5c0 0 4.3-10 9.9-4.5 5.5 5.5-11.8 151.4-11.8 151.4"/><path id="path98" d="M4775.6 5990.7l-29.7-42.4s-1.2 91.6-6.4 105.9c-5.2 14.3 4.4 64.5 0 74.8-4.4 10.3-145.7-31.4-379.6-12.8 0 0 27.8-81.9 12.7-88.1-15.1-6.2-5.4-107.5-5.4-107.5l-25.8 28.5s-32.3 172.6-30.1 201.6c2.8 38.6-14.3 218 314.7 194.4 37.7-2.7 74-15.6 104.6-38.3 34.3-25.5 69.9-65.7 68-122-2.6-74.6-23-194.1-23-194.1" fill="#e8734d"/><path id="path100" class="st16" d="M4431.8 5680.7s97.3-108.7 245.6 5.4c0 0-40.4-85-128.9-88.9-88.5-3.9-116.7 83.5-116.7 83.5"/><path id="path102" class="st10" d="M4303.6 5521.1s5.1-390.3 255.6-402.4v447.8s-116.4-4.2-255.6-45.4"/><path id="path104" class="st10" d="M4814.7 5521.1s-5.1-390.3-255.5-402.4v447.8s116.3-4.2 255.5-45.4"/><path id="path106" class="st17" d="M5555.3 6781s-5.3-98 21.5-120.1c26.8-22.1 30.8 13.2 30.8 13.2s-4.6-34.8 25.1-40.9c29.8-6.1 32.1 35.5 32.1 35.5s4.2-27.2 35.7-23.1c31.5 4.1 24.9 38.9 24.9 38.9s29.1-35.1 49.4-3.6c34.3 53.3 4.3 119.4 4.3 119.4s-8.9 15.3-38.9 9.3c0 0-19 38.9-64.4 13.6 0 0-45.1 25.8-62.8-11.5.1 0-49.7 24.9-57.7-30.7"/><path id="path108" class="st17" d="M3551.5 6781s5.3-98-21.5-120.1c-26.8-22.1-30.8 13.2-30.8 13.2s4.6-34.8-25.1-40.9c-29.7-6.1-32.1 35.5-32.1 35.5s-4.2-27.2-35.7-23.1c-31.5 4.1-24.9 38.9-24.9 38.9s-29.1-35.1-49.4-3.6c-34.3 53.3-4.3 119.4-4.3 119.4s8.9 15.3 38.9 9.3c0 0 19 38.9 64.4 13.6 0 0 45.1 25.8 62.8-11.5-.1 0 49.7 24.9 57.7-30.7"/><path id="path110" class="st13" d="M6509.3 6083.6h-192.2v1269.8h192.2V6083.6"/><path id="path112" class="st13" d="M6701.4 6212.7h-208.7v1011.6h208.7V6212.7"/><path id="path114" class="st13" d="M6893.6 6349.1H6680v738.8h213.6v-738.8"/><path id="path116" class="st13" d="M2622.8 6083.6H2815v1269.8h-192.2V6083.6"/><path id="path118" class="st13" d="M2430.7 6212.7H2658v1011.6h-227.3V6212.7"/><path id="path120" class="st13" d="M2238.5 6349.1h215.1v738.8h-215.1v-738.8"/><path id="path122" class="st12" d="M11839.6 4065.1s29.8-79.6 42.9-105.1c13-25.5 292.6-560 316.5-685.2 23.9-125.3 115.4-423 139.3-459 23.9-36.1 102-267.5 141.1-458.6 39.1-191.1 121.6-518 138.9-558.3 17.4-40.3-149.7-42.5-149.7-42.5s-243.2 484-297.4 573.2c-54.3 89.2-104.2 242-110.7 339.7-6.6 97.7-76 148.6-136.8 222.9-60.8 74.3-353.8 636.9-408.1 687.8-54.3 50.9-87.9 47-87.9 47v407.9l411.9 30.2"/><path id="path124" class="st12" d="M11034.1 4065.1s-29.9-79.6-42.9-105.1-324-592.7-347.8-718c-23.9-125.3-84.2-390.3-108-426.3-23.9-36.1-102.1-267.5-141.1-458.6-39.1-191.1-121.6-518-139-558.3-17.3-40.3 149.8-42.5 149.8-42.5s243.1 484 297.4 573.2c54.3 89.2 104.2 242 110.7 339.7 6.5 97.7 76 148.6 136.8 222.9 60.7 74.3 353.8 636.9 408 687.8 54.3 50.9 89 47 89 47l-1 407.9-411.9 30.3"/><path id="path126" class="st18" d="M12628.9 1820.3s60-91.3 107.2-116.8 220.3-96.8 248.5-155.7c19.8-41.3-7.2-122.8-173.7-95.8s-223.4 116.8-273.9 127.3c-50.5 10.5-105.3 49.5-108.5 123.4-3.3 73.9 27.1 60.8 20.6 87.7s179.8 29.9 179.8 29.9"/><path id="path128" class="st18" d="M10251.6 1820.3s-60-91.3-107.2-116.8-220.4-96.8-248.6-155.7c-19.8-41.3 7.3-122.8 173.8-95.8 166.4 27 223.4 116.8 273.9 127.3 50.4 10.5 105.2 49.5 108.5 123.4 3.3 73.9-27.1 60.8-20.6 87.7 6.5 26.9-179.8 29.9-179.8 29.9"/><path id="path130" class="st14" d="M11939.8 4991.7c-44.3 152.7 22.4 473.3 22.4 473.3-86.1 37.1-196.8 4.6-244.3 4.6-47.6 0-178.5 36.2-178.5 36.2h-211.9s-131-36.2-178.5-36.2-158.3 32.5-244.3-4.6c0 0 66.8-326 22.5-478.7 0 0 103.6-285.7 128.7-328 25-42.3.3-198.6-.6-237.9-1.2-56.4-9.8-217.1-21.2-355.1 0 0 127-75.7 399.3-82.1 269.5 17.5 406.2 82.1 406.2 82.1-17.1 164.4-28.1 302.8-34.9 356.4-4.9 39.1-18.8 194.4 6.3 236.7 25 42.1 128.8 333.3 128.8 333.3"/><path id="path132" class="st10" d="M11962.2 5465s73.1-34 107.5-36.5c34.3-2.5 87.7 49.7 153.9 43.5s91.4-41.1 153.3-38c62 3.1 83.4 15.7 87.7 38.5s83.4 163.2 50.3 355.8c-33.1 192.6 60.1 133.7 60.1 133.7s90.8-164.4 109.2-345.9c18.4-181.5-39.3-359.4-41.7-383.9-2.5-24.5-16-61.3-33.2-71.1-17.1-9.8-233.8-28.2-308.7-31.9-74.8-3.7-229.7 21.5-271.4-6.8-41.7-28.2-94.3-144.5-94.3-144.5s-71.7 359.2 27.3 487.1"/><path id="path134" class="st10" d="M10904.6 5465s-73.1-34-107.5-36.5c-34.3-2.5-87.7 49.7-153.9 43.5s-91.4-41.1-153.3-38c-62 3.1-83.4 15.7-87.7 38.5s-83.4 163.2-50.3 355.8c33.1 192.6-60.1 133.7-60.1 133.7s-90.8-164.4-109.2-345.9c-18.4-181.5 39.3-359.4 41.7-383.9 2.5-24.5 16-61.3 33.2-71.1 17.1-9.8 233.8-28.2 308.7-31.9 74.8-3.7 229.7 21.5 271.4-6.8 41.7-28.2 89.6-136.2 89.6-136.2s76.3 350.9-22.6 478.8"/><path id="path136" class="st10" d="M11568.3 5678.4s-16.2-101.4 17-169.7c0 0 35.9-160.1-128.6-170.9-164.4-10.8-171.5 136.6-171.5 136.6s38.2 53.7 8.8 197c-29.5 143.3 274.3 7 274.3 7"/><path id="path138" class="st10" d="M11455.4 6260.4s211.3-29.3 186.7-367.5c-24.6-338.2-211.1-314.6-223.6-314.5-12.4.1-186.4-10.3-209.1 401.5 0-.1-12.7 304.5 246 280.5"/><path id="path140" class="st10" d="M11643.3 5988.3s22.5 25.8 31.5.4c9-25.4-27.1-136.2-29.7-145.5 0 0-4-10-9.7-4.7-5.6 5.4 7.9 149.8 7.9 149.8"/><path id="path142" class="st10" d="M11214.4 5983.1s-23.1 25.2-31.5-.4c-8.4-25.6 31.4-140.5 33.4-144.8 0 0 4.2-9.9 9.7-4.4 5.5 5.6-11.6 149.6-11.6 149.6"/><path id="path144" class="st5" d="M11644.3 5936.6l-29.2-42s-1.2 90.5-6.3 104.6c-5.2 14.1 4.3 63.8 0 73.9-4.3 10.1-143.4-31-373.6-12.7 0 0 27.3-81 12.5-87.1-14.8-6.1-5.3-106.1-5.3-106.1l-25.4 28.1s-31.8 170.5-29.7 199.2c2.8 38.1-14 215.4 309.8 192.1 37-2.7 72.9-15.4 102.9-37.9 33.8-25.2 68.8-64.9 66.9-120.5-2.5-73.5-22.6-191.6-22.6-191.6"/><path id="path146" class="st16" d="M11307.6 5630.2s96.2-107.4 242.6 5.4c0 0-39.9-84-127.3-87.9-87.5-3.8-115.3 82.5-115.3 82.5"/><path id="path148" class="st10" d="M11180.9 5472.6s5.1-385.7 252.5-397.6v442.5c0-.1-115-4.2-252.5-44.9"/><path id="path150" class="st10" d="M11685.9 5472.6s-5-385.7-252.5-397.6v442.5c0-.1 115-4.2 252.5-44.9"/><path id="path152" class="st19" d="M12712.1 5936.9c0-151.4-122.8-274.1-274.2-274.1s-274.1 122.7-274.1 274.1c0 151.4 122.7 274.1 274.1 274.1 151.4 0 274.2-122.7 274.2-274.1"/><path id="path154" class="st20" d="M12571.3 5936.9c0-73.7-59.7-133.4-133.4-133.4-73.6 0-133.4 59.7-133.4 133.4s59.8 133.4 133.4 133.4c73.7 0 133.4-59.8 133.4-133.4"/><path id="path156" class="st19" d="M10708.5 5936.9c0-151.4-122.7-274.1-274.1-274.1-151.4 0-274.2 122.7-274.2 274.1 0 151.4 122.8 274.1 274.2 274.1 151.4 0 274.1-122.7 274.1-274.1"/><path id="path158" class="st20" d="M10567.7 5936.9c0-73.7-59.7-133.4-133.3-133.4-73.7 0-133.4 59.7-133.4 133.4s59.7 133.4 133.4 133.4c73.6 0 133.3-59.8 133.3-133.4"/><path id="path160" class="st21" d="M1338.7 5723.7s-52.8 211.1 77.6 317.8c130.4 106.7 275.1 68.8 347.4 0 72.3-68.8 161.4-208.3 78.4-406.3s-100.9-151-64.2-296.8 81.8-246.6 8.3-313-187.3-48.6-198 34.4c-10.7 83-20.3 378.2-27.9 421.5s-221.6 242.4-221.6 242.4"/><path id="path162" class="st10" d="M1625.7 5370.2s151.1-58.6 206.2-65.8c55.1-7.1 34.8-170.6 34.8-170.6s39.5-113.1 36.7-186.8c-3.7-99.3-50.2-126-53.8-133.1s-44.4-241.7-48-282.6c-3.6-40.9 11.4-93.3 20.7-127.1 10.5-37.9 44.2-177.6 44.2-177.6s-278-84-697.4-7.6c0 0 27.4 108.3 37.3 161.9 5.3 28.9 21.2 84.6 14.1 137.9-7.1 53.3-65.8 277.3-67.5 298.6-1.8 21.3-117.3 138.6-14.2 279 0 0 26.7 145.7 33.8 184.8 0 0 179.5 81.8 227.5 88.9 47.9 7.2 225.6.1 225.6.1"/><path id="path164" class="st10" d="M1831.9 5304.5s72.9-2.2 127.5-42.2c54.6-40 92-202.6 101.3-229.3 9.3-26.6 110.6-194.6 127.9-247.9 17.3-53.3 26.7-86.6 34.7-84 8 2.7 114.5 169.5 130.6 209.9 18.3 45.9 90.6 245.9 90.6 245.9l77.1-143.3 5.1-12s-74.2-200.6-96.9-272.6c-22.7-72-76-241.3-101.3-263.9-25.3-22.7-122.6-54.6-174.6-13.3s-173.3 234.6-203.9 299.9c-30.7 65.3-90.7 170.6-90.7 170.6s-96.3 313.7-27.4 382.2"/><path id="path166" class="st10" d="M1172.5 5281.4s-76.9.9-112.8-31.1c-36-32-104-109.3-120-177.3-16-68-25.3-190.6-46.7-257.3-21.3-66.6-81.3-238.6-112-301.2-30.7-62.6-58.6-323.9-77.3-386.6-18.7-62.6-87.1-271.5-87.1-271.5l108.4-55.1s219.9 482.5 241.3 555.8c21.3 73.3 25.3 162.6 45.3 217.3s108 255.5 121.3 293.7c13.4 38.3 163.2 396.4 39.6 413.3"/><path id="path168" class="st22" d="M1157.8 4187.6s-37.7-78-62.5-131.4c-24.8-53.4-118.3-279.3-155.7-435.5-37.3-156.2-119.6-430.8-130.3-509.3-10.6-78.4-47.9-196.6-84.1-259.5-36.2-62.8-119.6-247.9-134.5-368.2-14.9-120.1-108.5-649.7-108.5-649.7s53.3-50.1 152.5 9.9c0 0 185 495.8 228.1 567.8 43.1 71.9 110.3 261.2 119.7 330.9 9.4 69.7 79.1 145.1 142.9 304.8 63.8 159.6 322.7 617.1 359 711 0 0 12.5 38.1 48.4 26.1l-13.8 403.8-361.2-.7"/><path id="path170" class="st22" d="M1876.8 4193.5s40.5-83.8 65.4-137.3c24.8-53.4 129.2-287.7 166.5-444 37.4-156.2 108.8-422.4 119.4-500.8s47.9-196.6 84.1-259.5c36.2-62.8 119.7-247.9 134.6-368.2 14.9-120.2 108.5-649.9 108.5-649.9s-53.3-50.1-152.5 9.9c0 0-185 495.8-228.1 567.8-43.1 71.9-110.3 261.2-119.7 330.9-9.4 69.7-79.1 145.1-142.9 304.8-63.8 159.6-322.7 617.1-359 711 0 0-9.1 41-51.3 25.2l-346.3 399.2 721.3 10.9"/><path id="path172" class="st10" d="M1386.6 5960.2s-85.4-135.1-32-323.7c53.4-188.5 129.8-200.5 192.8-181.4 76.5 23.2 149.7 182.6 162.1 253.7s59.9 242-123.7 263.8c-84.2 10.1-169.5 7.2-199.2-12.4"/><path id="path174" class="st10" d="M1610.6 5509.7s-1.4-205 26.7-262.1c28.1-57.1-253.1-21.8-253.1-21.8s34.5 231.7 22.1 287.3c-12.4 55.5 204.3-3.4 204.3-3.4"/><path id="path176" class="st21" d="M1337.1 5760.5s69.7 163.6 138.5 157.7c0 0 134.2-175 252.1-242.8 0 0 145.1 238-196.4 341.2 0 0-207 81.8-194.2-256.1"/><path id="path178" class="st16" d="M1419.9 5494.4s44.8-54 93.9-45.6c49.2 8.5 76.8 32.8 76.8 32.8s-22.6-53.8-82.2-53.8c-51.1 0-88.5 66.6-88.5 66.6"/><path id="path180" class="st2" d="M1757.6 5323.5s87.6-142.7 109.1-189.7c0 0 115.4-218.1-17.1-319.9 0 0-13.8-114-37.3-208.8 0 0-291.8 59.8-607.5-9.5 0 0-51.8 195.5-51.8 221.8 0 0-124.4 152-14.2 279 0 0 98 198.3 106.1 216.7-.1.1 223 142.3 512.7 10.4"/><path id="path182" class="st23" d="M2870.2 5215c0-117.8-82.8-213.3-184.8-213.3-102.1 0-184.8 95.5-184.8 213.3 0 117.8 82.8 213.3 184.8 213.3 102.1-.1 184.8-95.5 184.8-213.3"/><path id="path184" d="M2770.6 5201.4c0-59.2-41.6-107.1-92.8-107.1-51.3 0-92.8 48-92.8 107.1 0 59.2 41.6 107.1 92.8 107.1 51.3 0 92.8-48 92.8-107.1" fill="#948884"/><path id="path186" class="st10" d="M2526.8 5001.7s61.3 74.4 97.8 97.5c36.4 23.1 73.8 56.9 69.3 92.4-4.4 35.5-41.8 119.1-64.9 121.7-23.1 2.7-109.3-25.8-109.3-25.8l-75.1-130.6 82.2-155.2"/><path id="path188" class="st25" d="M2612.1 5235.1c0-117.8-82.8-213.3-184.8-213.3s-184.8 95.5-184.8 213.3c0 117.8 82.8 213.3 184.8 213.3s184.8-95.5 184.8-213.3"/><path id="path190" class="st26" d="M2515.3 5235.1c0-63.4-44.6-114.8-99.5-114.8-55 0-99.5 51.4-99.5 114.8s44.6 114.8 99.5 114.8c54.9.1 99.5-51.3 99.5-114.8"/><path id="path192" class="st10" d="M1353.3 5358.2S1201 5022.4 1491.6 5013s178.1 314.4 170.1 345.5c0 0-120.4 74.9-308.4-.3"/><path id="path194" class="st26" d="M650.9 1887.1s-16.4-14.5-39.1-11.9c-22.7 2.7-89.3 30.7-118.6 18.7-29.3-12-45.3-142.6-102.6-174.6s-229.3-132-219.9-217.3c9.4-86.1 241.3-62.6 301.2 8 60 70.6 112 36 160 85.3 47.9 49.3 11.7 242.8 19 291.8"/><path id="path196" class="st26" d="M2386.1 1888.1s17.4-15.5 40.1-12.9c22.7 2.7 89.3 30.7 118.6 18.7 29.3-12 45.3-142.6 102.6-174.6s229.3-132 219.9-217.3c-9.4-86.1-241.3-62.6-301.3 8s-112 36-159.9 85.3c-47.9 49.3-12.7 243.8-20 292.8"/><path id="path198" d="M1169.2 4219.1s318-6.9 697.4 7.6l16.6-46.5s-280.4-53.3-731.9-5.9l17.9 44.8" fill="#3b78ab"/><path id="path200" class="st10" d="M643.9 3899.5s-23-23.5-30.5-45c-5.9-17-26.9-40-36.7-53-9.9-13-46.2-73.7-51.1-90.4-2-6.8 2.6-53.4-3.1-66.8-5.6-13.5-20.4-39.4-8.4-43.7 12-4.4 31.7 15.3 31.7 15.3s-4.3-12.6 5-19.6c18.1-13.6 31-7.5 31-7.5s4.1-15.6 13.1-19.4c19.9-8.4 32.2-2.1 32.2-2.1s7.3-9.8 21.8-12.4c18.6-3.4 30.3 11 30.3 11s22.2-9.5 31.7.1 11.2 21.5 16.5 30.8c5.3 9.3 29.5 99.6 15.1 170.3-14.3 70.6 26 129.9 26 129.9l-124.6 2.5"/><path id="path202" class="st23" d="M795.4 3580.6l-338.8 81.7 15 62.2 338.8-81.7-15-62.2"/><path id="path204" d="M544.6 3625s17.9 80.8 43.2 93.6c25.3 12.8 20.5-16.7 20.5-16.7s4.3 29.2 28.3 28.4c24-.8 16.5-35.1 16.5-35.1s9.3 21.3 32.4 11.9c23.1-9.4 10.3-36.5 10.3-36.5s30 23 38.4-6.6c14.2-50-23.4-98-23.4-98s-10.2-10.7-31.7-.1c0 0-23.1-28-52.1 1.4 0 0-40.1-12.3-45.3 21.5.1 0-43.4-10.6-37.1 36.2" fill="#db9c7c"/><path id="path206" class="st25" d="M436.2 3481l-39.1 8.9c-16 3.6-26 19.6-22.4 35.6l81.5 358.1c3.6 16 19.6 26 35.6 22.4l39.1-8.9c16-3.6 26-19.6 22.4-35.6l-81.5-358.1a29.62 29.62 0 00-35.6-22.4"/><path id="path208" class="st25" d="M775.1 3399.3l-39.1 8.9c-16 3.7-26 19.6-22.4 35.6l81.5 358.1c3.6 16 19.6 26 35.6 22.4l39.1-8.9c16-3.6 26-19.6 22.4-35.6l-81.5-358.1a29.67 29.67 0 00-35.6-22.4"/><path id="path210" class="st1" d="M14501.5 5479.5s159.7-336.7 49.7-356.9c-150.9-27.6-212 251.3-212 251.3l162.3 105.6"/><path id="path212" class="st4" d="M14530.3 5147.2s86.3 68 123 104.7 199 297.2 231.7 347.8c32.8 50.6 70 150.3 92.3 193.5 22.3 43.2 242.7 375.1 242.7 375.1l84.8-35.7s-151.8-384-190.5-448c-38.7-64-77.4-193.5-107.2-250.1-29.8-56.6-190.5-284.3-218.8-336.4-28.3-52.1-55.2-153.7-55.2-153.7s-241.1 62.4-202.8 202.8"/><path id="path214" class="st4" d="M14213.3 5319.9s15.8-117.9 7.9-199.1c-7.9-81.2 222.3-21.7 222.3-21.7s-12.9 176.6 6.9 240.1c19.9 63.5-237.1-19.3-237.1-19.3"/><path id="path216" class="st3" d="M13982.4 4116.1s-31-76.6-51.4-129c-20.3-52.4-117.8-265.9-144.5-417.4-26.6-151.5-66.8-426.3-72.6-502-5.8-75.7-34.4-190.8-64.8-252.8-30.5-62-98.5-243.5-106.2-359.4-7.6-115.9-67.4-628-67.4-628s52.2-45.3 141.3 17.1c0 0 146.4 484.3 182.8 555.3 36.4 71.1 89.1 255.7 94.3 323s66 142.9 117.1 299.1c51.1 156.1 264.8 605.5 285.6 694.4 0 0 2 39.6 55.2 32l-33.6 386.2-335.8-18.5"/><path id="path218" class="st3" d="M14659.3 4113.2s33.2-82.4 53.4-134.9 117.4-266.1 143.8-417.6c26.4-151.6 66-426.4 71.7-502.1 5.7-75.7 34.1-190.8 64.4-252.9 30.3-62.1 98-243.7 105.4-359.6 7.4-115.9 66.3-628.1 66.3-628.1s-52.2-45.3-141.2 17.3c0 0-145.6 484.5-181.8 555.7-36.3 71.1-88.7 255.9-93.7 323.2-5.1 67.3-65.8 143.1-116.6 299.3-50.9 156.2-267.1 607.8-295.8 699.6 0 0-6.3 38.9-46.4 26.8l-300.5 400.3 671-27"/><path id="path220" class="st8" d="M13629.1 1884.9s-13.9-14.6-35.1-13.2c-21.2 1.3-84.5 24-111.2 11.4-26.6-12.6-35-134.8-86.7-167.4-51.7-32.6-206.5-134.1-193.6-212.9 13.1-79.6 227.4-46.2 279.6 22.5 52.3 68.7 102.3 39.1 144.5 87.3 42.1 48.1-1.9 226.4 2.5 272.3"/><path id="path222" class="st8" d="M15011.1 1874.9s14.1-13.8 35.3-12.5c21.2 1.3 84.6 23.9 111.2 11.2 26.7-12.7 34.8-134.9 86.4-167.6 51.6-32.7 206.3-134.5 193.2-213.3-13.2-79.6-227.5-45.8-279.6 23-52.1 68.8-102.2 39.2-144.2 87.5-42.1 48.3 2 225.7-2.3 271.7"/><path id="path224" class="st4" d="M14144.1 5631.7s-21.1 25.2-28.9-.2c-7.8-25.4 17.8-101 20.7-111.9 0 0 12.7-42.4 17.8-37 5.1 5.5-9.6 149.1-9.6 149.1"/><path id="path226" class="st4" d="M14511.1 5628.6s21 25.2 28.8-.2c7.9-25.4-17.8-100.9-20.6-111.9 0 0-12.7-42.4-17.8-37s9.6 149.1 9.6 149.1"/><path id="path228" class="st4" d="M14360.5 5873.2s192.9-29.7 164.7-333.5c-28.3-303.8-198.5-279.7-209.8-279.4-11.4.3-170.8-6.3-184.6 364.4 0 0-6.4 274.1 229.7 248.5"/><path id="path230" class="st1" d="M14167.8 5642.9s214.1-63.7 316.5-43.3c0 0 6.6-37.8 21.3-40.1s22.2 72.3 22.2 72.3 5 247-218.4 249.4c-223.5 2.3-178.1-267.6-178.1-267.6l3-46.1c0-.1 32-12.8 33.5 75.4"/><path id="path232" class="st9" d="M14239.5 5289.3s67.6-64 171.4-5.3c0 0-30.7-51.3-88.9-50-58.2 1.4-82.5 55.3-82.5 55.3"/><path id="path234" class="st4" d="M14439.8 5181.8s63.7-30.1 90.5-34.6c26.8-4.5 203.9-148.9 209.9-163.7 5.9-14.9-41.7-137-59.6-193.5-17.8-56.6-94.7-397.4-87.5-421.3s73.8-262.9 76.9-282.2c-463.4-91.3-704.8-13.1-704.8-13.1s78.4 231.3 75.4 275.9c-3 44.7-46.2 297.7-77.4 369.2-31.3 71.5-83.4 251.6-83.4 251.6s202.5 157.8 208.4 168.2c6 10.4 107.4 29.8 135.2 43.5h216.4"/><path id="path236" class="st4" d="M14101.2 5145.2s-97.3 70-134.1 106.7c-36.7 36.7-198.9 297.2-231.7 347.8-32.7 50.6-69.9 150.3-92.2 193.5-22.4 43.2-242.7 375.1-242.7 375.1l-84.8-35.7s151.8-384 190.5-448c38.7-64 77.4-193.5 107.2-250.1 29.8-56.6 190.5-284.3 218.8-336.4 28.3-52.1 55.2-153.7 55.2-153.7s252.1 60.4 213.8 200.8"/><path id="path238" class="st3" d="M14530.3 5147.2s97.7-301 131.5-429.6c0 0-51.4-230.1-57.6-264.5 0 0-288.3 55.5-577.1-10 0 0-62.3 270.6-68.3 285.8 0 0 98.8 176.1 142.4 416.3 0 0 37.3 21.9 65 18.6 0 0-27.4-301 170.6-298s137.2 300.7 137.2 300.7 35.6-9 56.3-19.3"/><path id="path240" class="st4" d="M13449.5 6094.2s-20.9 31.7-22.2 51.8c-1 16.4 1 40.2.6 55.1s-9.2 79-15.3 93.7c-2.4 6-32.3 36.6-36 49.4-3.7 12.8-8 39.7-19 36-11.1-3.8-13.8-29.1-13.8-29.1s-4.1 11.4-14.8 11.1c-20.7-.6-26.4-12.4-26.4-12.4s-11.8 8.8-20.4 6.4c-19-5.4-24.2-16.9-24.2-16.9s-10.8 2.8-22.6-3.6c-15.2-8.2-15.3-25.2-15.3-25.2s-21.3-5.9-22.6-18.2c-1.3-12.3 4.3-21.7 5.9-31.4 1.5-9.7 36.6-87.1 86.5-130.1 40.6-35 70.9-105.4 70.9-105.4l88.7 68.8"/><path id="path242" class="st6" d="M13145.5 6233.6l288.4 135.5 24.9-52.9-288.4-135.5-24.9 52.9"/><path id="path244" class="st7" d="M13349.8 6345.4s33.5-67.9 22.7-91.5c-10.7-23.6-24.2.1-24.2.1s13.7-23.3-3.9-36.5c-17.6-13.2-31.8 15.5-31.8 15.5s5.6-20.5-16.3-27-28.2 20.1-28.2 20.1-8.3-33.5-31.2-17.2c-38.7 27.6-39.4 83.3-39.4 83.3s1.1 13.4 22.6 18.2c0 0 .5 33.2 37.9 28.8 0 0 21.6 31.8 44.6 10.5 0 .2 25 32.7 47.2-4.3"/><path id="path246" class="st8" d="M13350.6 6512.9l21.2 10.3c16.7 8.1 36.9 1.1 45.1-15.6l140.9-290.3c8.1-16.8 1.1-37-15.7-45.1l-21.1-10.3c-16.8-8.1-37-1.1-45.1 15.6l-140.9 290.3c-8.1 16.8-1.1 37 15.6 45.1"/><path id="path248" class="st8" d="M13055.5 6374.2l34.6 16.8c13.1 6.3 28.8.9 35.1-12.2l147.4-303.7c6.4-13 .9-28.8-12.1-35.1l-34.6-16.8c-13.1-6.3-28.8-.9-35.1 12.2l-147.5 303.7c-6.3 13-.8 28.8 12.2 35.1"/><path id="path250" class="st4" d="M15170.9 6094.2s21 31.7 22.3 51.8c1 16.4-1.1 40.2-.6 55.1.4 14.9 9.2 79 15.2 93.7 2.5 6 32.4 36.6 36.1 49.4 3.6 12.8 7.9 39.7 19 36 11-3.8 13.8-29.1 13.8-29.1s4.1 11.4 14.7 11.1c20.8-.6 26.5-12.4 26.5-12.4s11.8 8.8 20.4 6.4c19-5.4 24.2-16.9 24.2-16.9s10.7 2.8 22.6-3.6c15.2-8.2 15.3-25.2 15.3-25.2s21.3-5.9 22.6-18.2c1.3-12.3-4.3-21.7-5.9-31.4-1.6-9.7-36.6-87.1-86.6-130.1-40.6-35-70.9-105.4-70.9-105.4l-88.7 68.8"/><path id="path252" class="st6" d="M15474.9 6233.6l-288.4 135.5-24.9-52.9 288.4-135.5 24.9 52.9"/><path id="path254" class="st7" d="M15270.7 6345.4s-33.5-67.9-22.7-91.5c10.7-23.6 24.1.1 24.1.1s-13.7-23.3 3.9-36.5c17.6-13.2 31.9 15.5 31.9 15.5s-5.6-20.5 16.3-27c21.8-6.5 28.2 20.1 28.2 20.1s8.2-33.5 31.2-17.2c38.7 27.6 39.4 83.3 39.4 83.3s-1.1 13.4-22.6 18.2c0 0-.5 33.2-37.9 28.8 0 0-21.6 31.8-44.6 10.5 0 .2-25 32.7-47.2-4.3"/><path id="path256" class="st8" d="M15269.9 6512.9l-21.2 10.3c-16.8 8.1-37 1.1-45.1-15.6l-140.9-290.3c-8.1-16.8-1.1-37 15.6-45.1l21.2-10.3c16.7-8.1 36.9-1.1 45.1 15.6l140.9 290.3c8.1 16.8 1.1 37-15.6 45.1"/><path id="path258" class="st8" d="M15565 6374.2l-34.6 16.8c-13.1 6.3-28.8.9-35.1-12.2l-147.5-303.7c-6.3-13-.8-28.8 12.2-35.1l34.6-16.8c13.1-6.3 28.8-.9 35.1 12.2l147.4 303.7c6.4 13 .9 28.8-12.1 35.1"/></g></g></svg>